<?xml version="1.0" encoding="utf-8"?>
<!-- Generator: Adobe Illustrator 19.2.1, SVG Export Plug-In . SVG Version: 6.00 Build 0)  -->
<svg version="1.1" id="Layer_1" xmlns="http://www.w3.org/2000/svg" xmlns:xlink="http://www.w3.org/1999/xlink" x="0px" y="0px"
	 viewBox="0 0 640 468" style="enable-background:new 0 0 640 468;" xml:space="preserve">
<style type="text/css">
	.st0{fill:#337AB7;}
</style>
<g>
	<path class="st0" d="M218.8,399.5c0.2-0.7,0.4-1.2,0.6-1.9c0.5,0.6,0.9,0.9,1.2,1.4c1.3,2.2,2.7,4.4,3.9,6.7
		c1.1,2.1,2.1,4.4,3.2,6.5c1.3,2.6,2.8,5.1,4.9,7.1c0.4,0.4,0.8,0.7,1.3,1.1c1.2-2.6-0.4-5.1,0.5-7.8c0.4,0.5,0.7,0.8,0.9,1.1
		c1.2,2,1.9,4.3,2.2,6.6c0.4,2.5,0.7,5,1,7.5c0.4,3.5,0.7,7,2.1,10.6c-0.6-0.2-1.1-0.3-1.5-0.4c-5.1-1.9-9.8-4.7-14-8.3
		c-3.8-3.3-7.4-6.7-11.1-10.1c-3.6-3.4-7.2-6.8-11.3-9.7c-3.9-2.8-8-5.1-12.5-6.7c-0.8-0.3-1.6-0.7-2.1-1.3c-1.9-2-3.7-4.2-5.5-6.3
		c-2.2-2.7-4.4-5.4-6.6-8.1c-1.3-1.5-2.8-2.8-4.6-3.9c-0.9,0.9,0.3,2-0.4,3.1c-0.4-0.4-0.8-0.8-1.2-1.2c-2.4-2.7-4.3-5.7-6.2-8.8
		c-2.1-3.5-4.1-7-6.3-10.5c-1.8-3-3.9-5.7-6.5-8.2c-2.4-2.4-5.2-4.3-8.4-5.5c-2-0.8-2.2-0.7-3.2,1.2c-0.2,0.4-0.5,0.8-0.8,1.4
		c-0.6-0.8-1-1.3-1.4-1.9c-6.4-8.6-12.8-17-20-25c-2.8-3.1-5.6-6.3-9-8.9c-1.6-1.2-3.4-2.4-5.2-3.3c-2.7-1.3-4.9-3.2-6.4-5.7
		c-1.4-2.4-2.6-4.8-3.8-7.3c-1.2-2.5-2.3-5.1-3.5-7.6c-1.5-3.1-3.4-5.9-6.2-8.1c-0.3-0.3-0.6-0.7-0.7-1.1
		c-1.3-7.3-3.7-14.2-5.9-21.2c-1.9-6.1-3.7-12.2-4.7-18.5c-1.2-7.4-1.4-14.7,0.2-22c0.3-1.6,1-3.1,1.6-4.6c0.1-0.4,0.5-0.6,0.7-1
		c0.1,0,0.2,0,0.3,0.1c0.1,0.6,0.2,1.3,0.2,1.9c0.1,4.5,0.2,9.1,0.2,13.6c0,6,0.4,11.9,1.8,17.7c1.9,7.6,5.4,14.3,10.5,20.2
		c3.6,4.2,7.6,8.2,11.4,12.3c2,2.1,4.5,3.5,6.9,4.9c0.8,0.5,1.8,0.7,2.7,0.8c0.7,0.1,1,0.3,1.4,0.9c0.7,1.2,1.4,2.5,2.2,3.7
		c0.8,1.2,1.6,2.4,2.5,3.4c2,2.2,4.2,2.9,7.1,1.2c0.2-0.1,0.4-0.2,0.7-0.4c0.6,0.8,1.3,1.5,1.8,2.3c0.9,1.3,1.6,2.7,2.4,4.1
		c0.7,1.1,1.3,2.2,2.2,3.1c1.8,2.1,3.8,2.3,6.2,0.9c0.5-0.3,1-0.6,1.6-1c0.4,0.5,0.8,1,1.1,1.5c7.8,11,15.6,22,23.5,32.8
		c4.1,5.6,8.5,11,12.8,16.5c0.4,0.5,0.8,0.9,1.3,1.5c0.9-1.3,0-2.8,0.8-4.2C188.3,372.9,203.5,386.2,218.8,399.5z"/>
	<path class="st0" d="M357.2,288.6c-1,2-1.7,2.1-3.1,0.8c-0.5-0.5-1-0.9-1.5-1.4c-0.1-0.1-0.3-0.1-0.6-0.2c0.2,0.5,0.3,1,0.4,1.4
		c0.4,1.5,0.3,2.9-0.6,4.2c-1.1,1.5-2.2,1.7-4,0.5c0.1,0.6,0.2,1,0.4,1.5c0.1,0.4,0.3,0.8,0.5,1.2c-0.6,1.3-1.4,2.2-2.9,2.6
		c-1.6-0.8-1.2-2.9-2.7-4.3c0.1,1.2,0.1,2,0.2,2.7c0.4,3.6,1,7.2,1.3,10.8c0.3,3.3,0.4,6.6-0.5,9.9c-1,3.9-3.5,6.1-7.5,6.7
		c-0.3,0-0.5,0.1-0.8,0.1c-0.1,0-0.3-0.1-0.5-0.2c0.1-0.5,0.2-1,0.3-1.6c-0.6-0.3-1.2-0.5-1.7-0.7c-1.7-0.7-1.9-1.1-0.8-2.6
		c-0.8-1.3-2.9-1.7-2.9-3.7c1.4-1.4,4-1.7,4.7-4.2c-0.5,0-0.9,0-1.3,0c-1.2,0.2-1.3,0.1-1.9-0.9c-0.1-0.2-0.2-0.5-0.3-0.7
		c-0.1-0.2-0.2-0.4-0.4-0.7c-0.3,0-0.5,0-0.7,0.1c-1.9,0.6-3.7,0.1-5.2-1.2c-1.1-0.9-2.1-1.9-3.1-2.9c-0.7-0.7-1.5-1.3-2.2-1.9
		c-3.2,2.3-5.8,2.1-9.4-0.7c-0.7,1.2-1.4,2.3-2.1,3.4c-0.7,1.1-1.4,2.2-2.3,3.5c0.6-0.1,0.9-0.2,1.3-0.3c0.9,1.1,1.2,2.4,0.9,3.7
		c-0.2,1.1-0.6,2.1-1.2,3.1c-0.9,1.4-2,2.6-3,3.9c-0.9-0.3-1.2-0.8-1.3-1.6c-0.1-0.7-0.2-1.4-0.3-2c-0.1-0.6-0.4-1.2-0.6-2
		c-0.8,1.1-1.5,2-2.3,3.1c-0.6-0.9-1.1-1.5-1.6-2.3c-0.2,0.5-0.3,0.9-0.5,1.3c-0.6,1.5-1.3,2.1-2.8,1.5c-1.8-0.7-2.9-0.1-4,1.1
		c-1.2,1.2-2.4,2.4-3.6,3.5c-0.8,0.8-1.5,0.7-1.8-0.4c-0.2-0.7-0.3-1.4-0.5-2.1c-1.6,0.4-2.6,1.7-4.4,1.5c0-0.4,0-0.8,0.1-1.2
		c0.2-1.1,0.5-2.2,0.7-3.3c0.3-1.6,0-3.1-0.8-4.6c-0.4-0.7-1-1-1.7-0.7c-0.9,0.3-1.7,0.8-2.6,1.2c-0.8,0.4-1.6,1-2.7,1
		c-0.6-1.8-1.2-3.6-1.7-5.4c-1.4,0-2.3,0.6-3,1.5c-0.4,0.6-0.8,1.2-1,1.8c-0.5,1.6-1.6,3-2.7,4.2c-5.1,5.7-10,11.6-14.3,17.9
		c-0.1,0.2-0.3,0.3-0.5,0.5c-0.2-0.4-0.4-0.8-0.6-1.2c-0.6-1.1-1.3-1.2-2.4-0.5c-0.6,0.4-1,0.9-1.5,1.4c-0.8,0.7-1.6,1.5-2.5,2.2
		c-1.7,1.2-3.5,0.9-4.6-0.9c-0.6-1-1.1-2.1-1.3-3.2c-1.1-4.7-0.8-9.3,0.5-13.9c0.1-0.3,0.2-0.6,0.3-0.9c0.5-1.1,0.5-1.1,1.8-1
		c0.2-0.4,0.5-0.7,0.8-1.2c-0.1-0.2-0.2-0.4-0.3-0.5c-1.9-2-3.5-4.2-4.6-6.8c-0.7-1.6-1.3-3.2-1.6-4.9c-0.7-3.4,0.7-6.4,3.7-8.3
		c0.2,1.1,0.5,2.1,0.7,3.4c0.6-3.6,0.5-7.2,3.4-9.8c0.4,0.3,0.7,0.5,1.1,0.8c0.1-0.1,0.2-0.2,0.2-0.3c0.2-0.8,0.3-1.7,0.5-2.5
		c0.2-0.9,0.4-1.8,0.8-2.5c0.6-1.3,1.8-1.3,2.5,0c0.2,0.3,0.3,0.7,0.4,1c0.2,0.7,0.4,1.4,0.6,2.1c-5.8,9-6.3,18.9-5.1,29.1
		c0-0.3,0.1-0.6,0.1-0.9c0-0.3,0-0.6,0-1c0-6.8,0.9-13.5,3.5-19.8c1.2-2.9,2.7-5.5,4.6-7.9c1.1-1.4,1.1-1.4,2.9-0.6
		c0.9-0.6,2-1.3,3-1.9c1.2-0.7,2.3-1.4,3.9-1.1c0.3,0.1,0.8-0.3,1.2-0.6c0.4-0.4,0.6-1,1.5-0.8c0.6,2-0.3,3.8-1,5.7
		c1.2-1.3,2.3-2.8,4.2-3.8c0.4,0.5,0.8,1.1,1.1,1.6c2-0.6,2-0.6,3-0.5c0,1.2,0,2.3,0,3.7c1-0.2,1.5-0.9,2-1.5
		c0.7-0.9,1.3-1.8,2.1-2.6c0.9-0.9,1.2-0.9,2.4-0.1c2.1-1.8,4.3-3.5,6.3-5.4c0.7-0.6,1.2-0.9,1.9,0.1c2.8-2.3,5.5-4.5,8.2-6.8
		c0.8-0.7,1.5-1.6,2.1-2.6c1.5-2.4,1.4-4.7-0.3-6.9c-0.5-0.6-1-1.2-1.7-1.9c0.7-1.6-0.4-3-0.9-4.5c0.9-0.5,1.7-0.2,2.4,0.1
		c0.8,0.4,1.5,0.8,2.2,1.2c0.5,0.2,1.1,0.3,1.8,0.6c0.1-0.5,0.2-1,0.3-1.4c0.1-0.7,0.2-1.4,0.4-2c0.1-0.3,0.2-0.7,0.5-0.8
		c1.2-0.3,1.8-1.3,2.5-2c1.2,0.1,1.2,1.1,1.6,1.9c2-0.5,3.4-1.7,4.5-3.3c0.5-0.6,0.9-1.3,1.2-2.1c0.2-0.3,0.2-0.8,0.1-1.2
		c-0.2-0.9-0.4-1.7-0.6-2.6c-0.3-1.7-0.5-1.9-2.2-1.8c-0.1,0-0.3-0.1-0.5-0.2c-0.5-1.5,0.5-2.6,0.9-3.9c0.2-0.1,0.4-0.1,0.6-0.1
		c2.2,0,4.2-0.8,6.1-2c1.5-1,3-2,4.5-3c1.8-1.2,3.8-2.1,6-2.2c0.8,0,1.3-0.5,1.9-0.9c3.2-2.6,6.4-5.1,9.7-7.7c0.1-0.1,0.2,0,0.3-0.1
		c1.8,4.8-1.1,11.3-5.9,13.2c-0.3-0.4-0.5-0.8-0.9-1.3c-3.2,1.8-6.7,3.1-8.6,6.7c-0.2,0.1-0.3,0.1-0.5,0.1c-3-0.2-5.1,1.2-6.7,3.7
		c-0.3,0.5-0.7,1-0.9,1.5c-0.4,0.9-0.9,1.5-2,1.4c0.2,0.6,0.3,1,0.4,1.5c0.7,2.3,0.3,4.5-1,6.5c-0.8,1.2-1.8,2.4-2.7,3.5
		c-1.2,1.5-2.5,2.9-3.6,4.4c-1.2,1.7-1.8,3.7-1.7,5.8c0,0.9,0.2,1.8,1,2.4c2,1.8,3.9,3.7,5.9,5.4c2.8,2.3,5.7,4.4,8.6,6.5
		c0.3,0.2,0.7,0.5,1.1,0.5c1.1,0,2,0.5,2.9,1.2c0.5,0.3,0.9,0.7,1.4,1.1c2.4,1.8,3.1,1.9,5.8,0.7c0.4,0.4,0.9,0.8,1.4,1.2
		c1.7-1,1.8-1,4,1.5c0-2.9-1.3-5.7-1-8.6c0.9-0.3,1.5,0.2,2.1,0.6c0.6,0.4,1.2,0.9,1.8,1.3c0.4,0.3,1,0.5,1.5,0.5
		c-0.4-0.9-1.7-1-1.5-2.4C344.8,283.4,351.4,284.4,357.2,288.6z M282.3,291.8c0,0.1,0.1,0.2,0.1,0.3c0.9,0,1.8,0,2.8,0
		c4.7,0.1,9.5,0.3,14.2,0.3c4.3,0,8.6-0.6,12.7-2.2c0.4-0.1,0.7-0.4,1.3-0.6c-0.7-0.4-1.2-0.7-1.7-1c-2.9-1.6-6.1-2.3-9.4-2.4
		c-6.7-0.2-13,1.4-18.7,4.8C283.1,291.2,282.7,291.5,282.3,291.8z M258.1,298.5c0.9-2.4,1.7-4.8,2.6-7.2
		C259.1,293.5,258,295.8,258.1,298.5z M300.4,302.6c-0.2-0.9,0.2-2-0.6-3C299.7,300.7,299.4,301.8,300.4,302.6z"/>
	<path class="st0" d="M227.4,87.3c0.5-0.7,0.8-1.3,1.2-1.8c2.7-3.7,5.9-6.9,9.5-9.7c3.7-2.9,7.4-5.7,11.1-8.6
		c2.2-1.8,4.4-3.6,6.6-5.5c0.4-0.3,0.7-0.7,1.2-1.2c-1.6-0.8-3.1-1-4.6-1.1c-3.7-0.3-7.3,0.4-10.8,1.1c-3.3,0.7-6.6,1.3-9.9,1.9
		c-1.2,0.2-2.5,0.2-3.8,0.2c-1,0-1.8,0.1-2.4,0.9c-0.5,0.8-1.2,0.7-1.9,0.3c-0.2-0.1-0.5-0.3-0.7-0.4c-1.3-0.5-1.8-0.3-2.3,1
		c-0.2,0.4-0.3,0.8-0.5,1.2c-2,0.2-3.8-0.3-5.5-1.2c-0.3-0.2-0.7-0.8-0.6-1.1c0.3-1.3,0.7-2.6,1.2-3.9c0.1-0.2,0.4-0.3,0.6-0.4
		c0.5-0.2,1-0.4,1.5-0.4c3-0.3,5.8-1.5,8.6-2.4c3.6-1.2,7.4-2,11.1-3c1.7-0.4,3.3-1,5-1.5c1.4-0.4,2.7-0.9,4.1-1
		c4.4-0.4,8.7-0.7,13.1-0.4c4.6,0.3,9.3,0.6,13.9,1c2.3,0.2,4.5,0.7,6.7,1c3.5,0.5,5.7-0.6,7.2-3.8c0.4-0.8,0.9-1.2,1.8-1.3
		c1.9-0.2,3.8-0.2,5.7,0.3c1.4,0.3,2.6,0.9,3.6,2.2c1-2.3,2.8-3.5,5.2-3.7c2.3-0.2,4.4,0.6,6.3,2.1c1-0.5,2-0.9,2.9-1.4
		c2.4,1.3,3.4,4.6,0.5,7c-1.9,1.6-4.1,2.3-6.5,1.5c-1.2-0.4-1.9,0.1-2.7,0.7c-0.8,0.7-1.4,1.5-1,2.6c0.2,0,0.4,0,0.5,0
		c2.7-1.1,5.4-0.8,8,0.3c2,0.9,4,1.9,5.9,3c2.7,1.5,5.4,3.1,8.5,3.9c0.6,0.2,0.8,0.6,1,1.1c0.2,0.6,0.5,1.3,0.7,1.8
		c2.4,0,2.4,0,4.5,1.6c3.3,2.6,6.7,5.2,9.4,8.5c0.4,0.4,1,0.7,1.6,1c2.4,1,4.6,2.1,6.6,3.6c1.9,1.5,3.4,3.3,4.4,5.5
		c0.1,0.3,0.2,0.6,0.3,0.9c0,0.1,0,0.2-0.1,0.5c-1-0.3-2-0.5-3-0.8c-3.1-1-5.9-2.5-8.7-4c-2.4-1.3-4.7-2.8-7.2-4.1
		c-2.4-1.2-5-2.3-7.5-3.4c-0.7-0.3-1.3-0.7-1.7-1.3c-0.5-0.9-1-1.7-2.2-2.2c-0.2,0.1-0.4,0.2-0.6,0.3c-1,0.4-1.1,0.4-1.6-0.5
		c-0.6-0.9-1.2-1.9-1.9-2.7c-0.9-1.1-2-2-3.4-2.5c-1.2-0.4-2,0-2.1,1.2c-0.1,0.6,0,1.2,0.2,1.7c0.3,0.8,0.7,1.7,1.2,2.4
		c0.8,1.1,0.6,2,0,3c-0.8,1.4-1.1,1.6-2.7,1.4c-1.4-0.2-2.7-0.4-4.1-0.7c-2-0.4-3.8-1.2-5.2-2.9c-0.9,0.4-1.1,1.2-1.4,1.9
		c-0.3,0.8-0.5,1.6-0.9,2.4c-0.4,0.9-0.8,0.9-1.7,0.4c-0.8-0.5-1.5-1.1-2.3-1.7c-0.7-0.5-1.3-1-2.1-1.5c-0.4,1.2-0.1,2.2,0.1,3.1
		c0.7,3.1,2.3,5.5,5.1,7.1c0.7,0.4,1.4,0.7,1.4,1.7c0,1.1-0.3,2-1.2,2.7c-1,0.7-2.1,1.1-3.3,1c-1.9-0.1-3.9-0.3-5.8-0.5
		c-0.9-0.1-1.7-0.3-2.7-0.5c-0.1,0.5-0.2,0.8-0.2,1.2c0,0.3-0.1,0.6-0.1,0.9c-1.1,0.3-1.6-0.3-2.2-0.9c-0.5-0.6-1-1.2-1.5-1.9
		c-0.4,0.2-0.6,0.3-0.8,0.5c-1.2,0.9-2.6,1-3.9,0.3c-1.1-0.6-2.1-1.3-3-2c-0.8-0.6-1.6-1.3-2.3-1.9c-1.2-1-1.1-2.9,0.2-3.7
		c3.7-2.3,5.3-6,7.1-9.8c-1-0.2-1.8-0.4-2.6-0.5c-0.4,0-0.9,0.1-1.1,0.4c-0.7,0.6-1.4,1.3-1.9,2.1c-0.6,0.8-1,1.6-1.5,2.4
		c-1.4,2.5-3.5,3.6-6.4,3c-0.6-0.1-1.1,0-1.6,0.3c-1,0.8-1.3,1.6-0.7,2.8c0.3,0.7,0.8,1.3,1.2,2c0.4,0.7,0.9,1.3,1.3,2
		c-0.2,0.2-0.3,0.3-0.5,0.3c-4.6,1.3-9.2,2.8-14,3.2c-2.4,0.2-4.7,0.1-7.1,0c-0.9,0-1.6,0-2.3,0.6c-2.5,1.7-5.2,2.2-8.2,1.6
		c-0.4-0.1-0.8-0.2-1.2-0.4c-1.8-0.8-2.3-2.3-1.3-4c0.8-1.4,1.9-2.5,3.4-3.3c4-2,8.1-3.5,12.6-4.1c1.3-0.2,2.5,0.1,3.6,0.8
		c0.4,0.3,0.9,0.6,1.4,0.8c1.6,0.7,3,0.4,3.8-1.1c0.6-1.1,1-2.4,1.4-3.7c0.2-0.6-0.2-1-0.6-1.3c-2.3-2-4.8-2.6-7.7-1.5
		c-1.6,0.6-3.1,1.4-4.5,2.2c-1.5,0.8-3,1.8-4.5,2.6c-0.7,0.4-1.5,0.8-2.3,1c-2.3,0.5-4.3,1.7-6.4,2.7c-2,0.9-4.1,1.7-6.1,2.6
		C228.3,87.2,228,87.2,227.4,87.3z"/>
	<path class="st0" d="M486.7,301.6c1.2-1.6,2.7-2.1,4.3-2.3c5.3-0.6,10.3,0.4,15.2,2.4c3.7,1.5,7.1,3.5,10.4,5.7
		c3.6,2.4,7.2,4.8,10.9,7.1c3.4,2.1,7,3.7,10.8,4.8c3.3,0.9,6.3,2.5,9.2,4.2c2.5,1.5,5.1,3,7.5,4.7c9.4,7,19.8,12.3,30.6,16.8
		c8,3.3,16,6.9,23.9,10.5c6.3,2.9,12.4,6.4,18.1,10.4c0.5,0.3,0.9,0.7,1.5,1.2c-0.4,0.1-0.6,0.3-0.8,0.3c-4.3,0.5-8.6,1-12.9,1.5
		c-7,0.8-13.9,0.9-20.6-1.6c-5.3-2-10.3-4.7-14.8-8.1c-2.1-1.6-4.3-3.3-6.5-4.8c-2.2-1.6-4.5-2.9-7.2-3.5c-1.6-0.3-3.1-0.4-4.8,0.3
		c0.5,1.1,0.9,2.2,1.4,3.2c1.3,2.5,3.2,4.6,5.2,6.5c2.1,2,4.3,3.9,6.3,6c1.3,1.4,2.4,3,3.6,4.6c0.3,0.5,0.5,1,0.9,1.7
		c-1.4,0.3-2.7,0.6-4,0.8c-5.8,0.9-11.5,0.8-17-1.4c-3.3-1.3-6.2-3.2-8.3-6.1c-5.3-6.9-10.6-13.8-15.9-20.7
		c-5.5-7.2-11.2-14.2-17.5-20.6c-4.4-4.5-9.2-8.5-14.2-12.4c-3.8-3-7.6-5.9-11.5-8.7C489.4,303.1,488.1,302.5,486.7,301.6z"/>
	<path class="st0" d="M163.9,217.8c1.6-1.4,1.8-3.5,3.2-4.8c0.5,1,0.5,1.9,0.3,2.8c-0.3,1.8-0.8,3.5-1.2,5.2c-0.3,1.5-0.7,3-1,4.5
		c-0.3,1.4-0.1,2.8,0.4,4.3c1.1-0.2,1.3-1.9,2.9-1.5c-0.8,8.1-4.7,14.7-9.7,20.9c-0.1,0-0.2,0-0.4-0.1c-0.2-1.9-0.4-3.8-0.7-5.7
		c-0.4-3-0.7-6-1.3-8.9c-0.4-1.8-1.2-3.6-2-5.3c-0.3-0.7-1-1.4-1.5-2c-1.5,0.3-2.4,1.1-3,2.3c-0.6,1-1,2.1-1.5,3.2
		c-0.5,1.1-0.9,2.3-2,3.2c-0.1-0.4-0.2-0.7-0.2-1.1c-0.1-5,0.9-9.8,2.1-14.7c1-4.3,2-8.5,2.8-12.8c0.3-1.7,0.3-3.6,0.5-5.4
		c0-0.5,0-0.9-0.1-1.6c-1.4,0.9-0.6,3-2.4,3.5c-0.5-1.5-0.4-3.1-0.2-4.6c0.3-2.2,0.6-4.4,0.9-6.6c0.5-3.5,0.2-6.8-1.2-10.1
		c-0.8-2-1.7-4.1-1.8-6.4c-0.1-1,0-2,0-3.1c-1.4,0.1-2.4,1.6-4.1,1c0.2-0.6,0.4-1,0.5-1.5c2.3-6.1,3.4-12.5,3.6-19
		c0.1-2.4,0.4-4.7,0.5-7.1c0.1-2.3,0.1-4.5-0.1-6.8c-0.1-1.9-0.9-3.5-2-5.2c0.6-0.4,1.1-0.7,1.7-1.1c-0.2-0.8-0.4-1.7-0.6-2.5
		c-0.9-3.2-1.9-6.4-2.8-9.6c-0.6-2.3-0.8-4.6-0.2-6.9c0.5-2.1,1.7-3.7,3.6-5.1c-0.1,0.6-0.1,0.9-0.1,1.2c-0.2,3.1-0.3,6.2,0.6,9.3
		c0.5,1.8,1.3,3.4,2.7,4.8c0.8,0.8,1.6,1.1,2.7,0.8c1.8-0.4,3.6-0.7,5.5-0.8c0.8,0,1.8,0.3,2.5,0.8c1.1,0.6,1.1,1.2,0.4,2.2
		c-0.2,0.3-0.4,0.5-0.6,0.8c0.8,2.2,3,2.9,4.6,4.2c-2.7,4.9-2.9,10.3-3.6,15.5c-0.2,1.9-0.5,3.9-0.8,5.9c1.3-0.2,1.1-2.2,2.6-1.8
		c0,0.4,0.1,0.8,0.1,1.2c0,3.1,0,6.1-0.2,9.2c-0.1,1.4-0.5,2.9-1,4.3c-0.4,1.2-1.2,2.3-1.8,3.5c-0.5,1-1,2.1-1.3,3.2
		c-0.7,2.3-0.2,4.4,1.7,6c1.2,1,2.5,1.8,3.6,2.8c1,0.9,2,1.9,2.8,3c0.7,0.9,0.7,1.9,0.2,3c-2.1,4.7-3.8,9.5-4.5,14.6
		C162.6,207.8,162.7,212.6,163.9,217.8z"/>
	<path class="st0" d="M402.6,408.4c-1.4-0.5-1.1-1.7-1.9-2.5c-0.2,0.3-0.6,0.6-0.7,0.9c-0.9,2.1-1.9,4.1-2.7,6.2
		c-1,2.4-1.9,4.8-2.8,7.2c-0.2,0.5-0.5,1-1,1.7c-0.7-0.7-1.2-1.3-1.8-2c-0.5,0.4-1.1,0.8-1.6,1.3c-2,1.9-3.6,4.1-4.7,6.5
		c-1.3,2.8-2.4,5.6-3.5,8.5c-0.3,0.8-0.6,1.3-1.5,1.7c-1.6,0.6-2.7,1.9-3.5,3.3c-0.9,1.5-1.6,3.1-2.5,4.6c-0.6,1.1-1.3,2.3-2.5,3.1
		c-0.4-0.5-0.7-0.9-1-1.3c-1.1-0.3-2.2,0.1-3.2,0.4c-2.8,0.9-2.8,0.9-4-1.7c-1.7-3.7-2.9-7.6-3.6-11.6c-0.1-0.5-0.1-0.9-0.1-1.4
		c1.2-0.3,1.2,1.2,2.1,1.3c1.2-0.7,2-1.9,2.7-3.1c1.4-2.3,2.4-4.8,3.1-7.4c0.4-1.2,0.9-2.1,2.2-2.7c2-1,3.5-2.5,4.7-4.5
		c4-7,7.9-13.9,10.7-21.5c2.5-6.8,3.9-13.7,3.6-20.9c-0.2-3.9-1-7.7-2.3-11.4c-0.2-0.4-0.3-0.9-0.5-1.4c0.8-0.5,1.6-1,2.4-1.5
		c0.8-0.5,1-1.1,0.8-2.1c-1.3-6.8-4.1-13.1-8-18.8c-0.6-0.9-0.9-1.7-0.6-2.9c0.5-1.7,0.2-3.5-0.3-5.1c-0.4-1.5-1-2.9-1.4-4.4
		c-0.2-0.5-0.3-1.1-0.5-1.8c1.8,0.6,3.3,1.5,4.7,2.4c2.5,1.8,4.7,4,6.4,6.5c1.9,2.9,3.6,6,5.3,9c1.1,2,2,4.1,3.1,6.1
		c0.9,1.8,1.9,3.5,2.9,5.2c1.1,1.7,2.3,3.3,3.4,5c-0.2,0.8-0.8,1.3-1.6,1.6c-0.9,0.4-1.2,1.1-1.2,2c-0.3,4.8,0.2,9.5,1.1,14.2
		c0.2,1,0.4,2.1,0.6,3.1c0.1,0.6,0.1,1-0.6,1.3c-0.8,0.3-0.8,1-0.9,1.7c-0.5,3.4-0.1,6.7,0.2,10.1c0.3,3.6,0.6,7.3,0.7,10.9
		C403,405.5,402.8,406.9,402.6,408.4z"/>
	<path class="st0" d="M379.6,32.6c1-5.4,3.5-9.7,7.2-13.3c4.3-4.3,9.6-7.1,15.2-9.2c0.1-0.1,0.3,0,0.6-0.1c0.2,0.4,0.4,0.9,0.6,1.4
		c2.3,5.7,3.7,11.6,4.5,17.6c0.7,5.4,1,10.8,0.7,16.3c-0.4,6.1-1.5,12-4.2,17.6c-1.3,2.5-2.9,4.8-5,6.7c-0.7,0.6-1.5,1.2-2.4,1.9
		c-0.2-1-0.4-1.8-0.6-2.6c-0.2-0.6-0.3-1.2-0.6-1.8c-0.3-0.7-1-1.2-1.8-0.9c-1.2,0.3-2.5,0.6-3.5,1.2c-1.2,0.6-2.2,1.6-3.3,2.4
		c-0.6,0.5-1.2,0.8-2,0.6c-1.6-0.3-3,0.3-4.2,1.4c-0.8,0.8-1.6,1.7-2.4,2.5c-0.8,0.8-1.6,1.7-2.8,2.1c-2.1-1.1-2.8-3.1-2.9-5.3
		c-0.1-1.7,0-3.5,0.1-5.2c0.1-2.3,0.4-4.6,0.5-6.9c0-1.1-0.2-2.2-0.6-3.2c-1.1-2.8-4-3.5-6.3-1.5c-0.7,0.6-1.3,1.4-1.9,2.1
		c-0.3,0.4-0.6,0.8-1,1.3c-2.9-3.1-6-6-7.9-9.8c-1.1-2.2-1.7-4.5-1.8-7c-0.1-0.8,0.2-1.1,0.9-1.4c2.3-0.8,4.7-0.7,7,0
		c2.3,0.6,4.5,1.5,6.8,2.2c2.8,0.9,5.5,1.8,8.3,2.5c3.2,0.7,6.4,0.3,9.4-1.1c1.2-0.6,2.3-1.4,3.2-2.3c1.9-1.9,1.8-4.7,0.1-6.8
		C387.1,31,383.3,30.4,379.6,32.6z"/>
	<path class="st0" d="M277.2,35.8c1.5-0.2,2.8-0.3,4.1-0.4c5.9-0.8,11.7-1.5,17.6-1.7c4.3-0.1,8.5,0,12.7,1c4,1,7.5,2.8,9.6,6.6
		c4.6-1.1,9.2-2.2,13.8,0.3c-0.3,0.7-0.5,1.3-0.9,2c4.4,0.3,7.9,2.9,11.8,4.1c-0.2,3-1.9,4.7-4.8,4.5c-1.3-0.1-2.6-0.4-3.9-0.7
		c-0.5-0.1-1-0.3-1.6-0.5c-0.2,0.4-0.5,0.8-0.7,1.3c0.2,0.2,0.4,0.3,0.6,0.4c3.6,1.5,6.8,3.6,10,5.8c2.3,1.6,4.5,3.1,6.8,4.6
		c3.8,2.5,7.8,4.4,12.3,5.3c1.3,0.3,2,0,2.5-1.2c0.3-0.9,0.4-1.9,0.7-2.9c0.2-0.9,0.3-1.9,1.1-2.6c1.8,1,2.4,2.7,2.6,4.5
		c0.2,2.1-0.3,4.1-1.6,5.8c-1.1,1.5-2.6,2.3-4.5,2.1c-0.9-0.1-1.6,0-2.4,0.4c-0.6,0.3-1.3,0.4-2,0.5c-1.7,0.1-2.8-0.8-3.3-2.3
		c-0.1-0.3-0.2-0.7-0.4-1.2c-1.7,0.4-3.3,0.8-4.9,1.1c-0.2-0.3-0.3-0.4-0.4-0.6c-0.4-1.5-1.5-2.3-3-2.5c-1.6-0.3-3.2-0.3-4.9-0.4
		c-0.7,0-1.5,0-2.3,0c0-0.7,0-1.3,0-1.8c0-1.3-0.2-1.7-1.5-2c-1-0.2-2.1-0.4-3.1-0.3c-1.6,0.2-2.6-0.5-3.3-1.9
		c-0.3-0.7-0.8-1.2-1.1-1.8c-2-0.1-2.6,2.3-4.6,2.3c-0.4-1.1-0.8-2.2-1.2-3.3c-0.3-0.1-0.4-0.1-0.5-0.1c-1.2,0.7-2.1,0.6-3.2-0.4
		c-0.6-0.6-1.6-0.7-2.5-1c-0.9-2.4-0.2-4.5,2.1-5.7c1.5-0.7,3.2-1.1,4.8-1.5c0.5-0.1,1-0.3,1.6-0.2c1.5,0.1,2-0.8,2.3-2
		c0.4-1.5,0.9-3,1.3-4.7c-0.4,0.1-0.8,0.2-1.1,0.4c-2.4,1.2-4.6,2.8-6.6,4.6c-2.6,2.3-5.1,4.6-7.6,7c-0.4,0.4-0.9,0.8-1.5,1.3
		c-0.1-0.5-0.2-0.8-0.1-1.2c0.2-1.8,0.4-3.7,0.5-5.5c0.1-1.6,0.2-3.3,0.2-4.9c-0.1-2.4-1.3-4.1-3.5-5c-1.9-0.8-3.8-1.2-5.9-0.9
		c-3.2,0.4-6.4,0.6-9.6,0.3c-5.3-0.5-10.5,0.1-15.8,1c-4.7,0.8-9.5,1.5-14.2,2.1c-2.2,0.3-4.4,0.2-6.6,0.3c-0.9,0-1.8,0.1-2.6,0.4
		c-8,2.9-16.2,5.6-24.6,7.3c-2,0.4-4,0.7-6,1.1c0-0.1-0.1-0.2-0.1-0.3c0.5-0.3,0.9-0.7,1.4-1c3.9-2.7,8.1-4.7,12.6-6.2
		c6.4-2.1,12.8-4,19.2-6c2-0.6,4-1.3,6-1.9c0.5-0.2,1.1-0.4,1.7-0.6c-1.4-1.3-2.6-2.4-3.8-3.5c-0.3-0.2-0.8-0.3-1.2-0.2
		c-7.1,0.9-14.1,1.8-21.2,2.8c-2.6,0.4-5.2,1.1-7.6,2.2c-1.5,0.7-2.8,1.5-3.9,2.8c-0.8,1-2,1.7-3.2,2.3c-1.7,1-3.6,1.8-5.4,2.7
		c-0.9-0.8-1.9-1.7-3-2.8c0.7-0.5,1.3-1.1,2.1-1.6c0.7-0.5,1.5-0.8,2.2-1.3c0.9-0.6,1.5-1.4,1.5-2.5c0-0.9,0.4-1.3,1.1-1.5
		c1-0.4,2-0.8,2.9-1.2c1.4-0.6,2.8-1.3,3.1-3.1c0.1-0.3,0.6-0.7,1-0.8c1.7-0.5,3.5-0.9,5.2-1.3c2.1-0.5,4.1-0.8,6.2-1.3
		c1.8-0.5,3.5-1.2,4.8-2.6c0.6-0.6,1.2-0.5,1.9-0.4c2.3,0.3,4.6,0.7,6.9,1c2.8,0.4,5.7,0.7,8.5,0.2c0.7-0.1,1.1-0.3,1.5-0.9
		c0.9-1.2,1.6-1.3,2.8-0.5c0.8,0.5,1.4,1.2,2.2,1.8c1,0.7,2.1,1.3,3.2,2.1c0.4,0.3,0.8,0.6,0.9,1c0.2,1.1,0.3,2.3,0.2,3.4
		C277.7,34.1,277.4,34.8,277.2,35.8z"/>
	<path class="st0" d="M134.8,153.4c0.6,1.4-0.6,2.5-0.7,3.8c1.1,0.4,2.1,0.1,3-0.4c1.1-0.5,2-1.1,3.1-1.6c0.9-0.4,1.8-0.8,3-1.3
		c0,0.7,0,1.1-0.1,1.5c-0.8,1.8-1.6,3.7-2.6,5.4c-1.2,2.1-2.7,4-4.1,6.1c-0.4,0.6-0.7,1.2-1.1,1.8c1.2,0.4,2.6,0.1,3.6,1.1
		c-0.5,1.6-2.3,2.3-2.9,4c1.8-0.2,3.4-1.4,5.3-0.6c0.3,1.7-1.5,2.6-1.7,4.2c0.9-0.1,1.7-0.1,2.8-0.2c-0.4,0.7-0.7,1.1-0.9,1.4
		c-3.5,4-6.9,8-10.5,11.8c-1,1.1-1.6,2.1-1.8,3.5c-0.7,4.8-1.1,9.7-0.8,14.5c0.1,1.6,0.4,3.2,0.7,4.9c0,0.3,0.2,0.6,0.5,1.1
		c0.7-1,1.3-1.7,1.7-2.5c0.6-1.3,1.1-2.6,1.7-3.9c0.5-1,1.1-2,1.8-3c0.3-0.4,0.9-0.7,1.3-1.1c0.1,0.1,0.2,0.1,0.3,0.2
		c-0.1,0.5-0.2,1.1-0.4,1.6c-1.1,4.2-2,8.5-2.2,12.9c-0.1,2.7,0.1,5.4,0.8,8c0.2,0.6,0.4,1.2,0.7,1.8c2.2-1.4,2.7-4.2,5.3-5.2
		c0.3,1,0.1,2-0.1,2.9c-0.5,1.6-1,3.2-1.6,4.8c-0.7,2.1-1.5,4.3-1.5,6.6c0,1.7,0.1,3.4,1.1,4.8c1.4-0.5,1.8-2.4,3.8-2
		c-0.1,0.6-0.1,1.2-0.2,1.8c-0.9,3.6-1.9,7.1-2.9,10.7c-1.4,4.8-2.4,9.7-2,14.8c0,0.6,0.1,1.2,0.1,1.9c-0.8,0.3-1.3,0.2-1.7-0.6
		c-2.2-5.9-4.8-11.6-5.6-17.9c-0.1-0.4-0.1-0.7-0.1-1.1c0-0.4-0.1-0.7-0.1-1.3c-0.4,0.5-0.7,0.8-1.2,1.3c-0.3-0.6-0.7-1.1-0.9-1.7
		c-1.3-3-2.1-6.1-2.5-9.3c-0.7-4.3-1.2-8.7-1.9-13c-0.3-2.1-0.8-4.1-1.6-6.1c-0.7,0.3-1.4,0.6-2.3,1c1.6-9.5,3.5-18.6,7.7-27.1
		c-1.7,0.8-3.2,2-5.1,2c-0.5-1.1-0.1-2,0.4-2.9c0.5-0.7,1.1-1.4,1.6-2.1c0.6-0.8,1.1-1.7,0.8-3c-0.7,0.2-1.4,0.4-2.1,0.6
		c-1.1,0.4-2.2,1-3.4,1.4c-1.1,0.4-2.2,0.8-3.5,0.4c0.2-3,2.8-4.8,3.8-7.6c-0.8,0-1.4,0.1-2.1,0.1c-1.8,0.2-2.4-0.5-1.9-2.2
		c0.3-0.9,0.7-1.7,1.1-2.6c-1.3,0.1-2.5,0.2-4,0.3c0.3-0.8,0.4-1.3,0.6-1.7c1.3-2.3,2.6-4.6,4.1-6.8c1.1-1.8,2.4-3.5,3.6-5.2
		c0.3-0.4,0.5-0.9,0.9-1.5c-0.7-0.1-1.3-0.2-1.8-0.2C120.1,157.7,128.6,152.5,134.8,153.4z"/>
	<path class="st0" d="M198.8,238.5c-1.4,2-2.8,3.9-4.8,5.3c-2.1,1.4-3.5,1.1-5-0.9c-0.4-0.6-0.9-1.2-1.3-1.8
		c-0.9-1.3-2.1-1.7-3.6-1.3c-0.6,0.1-1.1,0.3-1.7,0.5c-2.2,0.7-4,0.1-5.4-1.6c-0.8-0.9-1.2-2.1-2-3c-1.5-1.6-1.5-3.4-1.4-5.4
		c0.1-4.9,1.1-9.6,1.8-14.4c0.6-3.9,1.1-7.7,1.3-11.6c0.1-2.8-0.3-5.7-0.6-8.5c-0.4-4.4-0.8-8.8-1.2-13.2c-0.5-4.5-1-9-1.5-13.5
		c-0.1-0.7-0.3-1.4-0.5-2.1c-0.5-1.8-1.3-3.4-3.1-4.4c0.6-2.6,1.1-5.2,1.7-7.7c0.9-3.8,1.8-7.6,2.9-11.3c0.6-2,1.6-3.9,2.5-5.8
		c1-1.8,2.3-3.4,4.1-4.6c0.3-0.2,0.7-0.4,1.2-0.6c-0.1,1.2-0.2,2.3-0.3,3.4c-0.1,2.9,0.4,5.7,1.1,8.4c1.2,4.9,1.6,9.9,1.6,14.9
		c0,4,0.1,7.9,0.2,11.9c0,1.2,0.1,2.3,0.3,3.5c0.6,3.5,0.3,7-0.4,10.5c-0.9,4.5-2,9-2.8,13.5c-0.6,3-0.8,6-0.2,9
		c0.7,3.6,3.4,5.9,6.6,5.9c0.3,0,0.6,0.1,0.9,0.1c2.3,0.4,3.6,1.9,3.5,4.3c-0.1,1.2-0.4,2.5-0.7,3.7c-0.2,0.9-0.4,1.7-0.5,2.6
		c-0.2,1.1,0.1,2,1,2.7c1.3,1,1.5,2.3,1.1,3.7c-0.4,1.6-0.9,3.1-1.2,4.7c-0.2,0.8-0.1,1.7,0.1,2.5c0.4,1.4,1.5,1.9,2.9,1.4
		c0.6-0.2,1.2-0.5,1.7-0.8C197.4,238,198,237.8,198.8,238.5z"/>
	<path class="st0" d="M267,347.4c2.8,3.8,4.2,8.3,7.7,11.8c0.1-1,0.2-1.6,0.3-2.3c0.2-1.2,0.4-2.4,0.7-3.5c0.3-1,0.9-1.9,1.9-2.4
		c1.5,0.5,1.7,2.1,2.8,3.1c0.5-0.5,1-1,1.7-1.7c0.2,0.4,0.4,0.6,0.4,0.9c0.6,3.9,1.9,7.6,3.5,11.2c1.4,3.2,2.8,6.4,4.2,9.6
		c1.7,4,2.8,8.2,3.3,12.8c1.3-1.5,1.1-3.8,3.5-4.4c-0.1,0.7-0.1,1.3-0.2,1.9c-0.5,5-0.6,9.9,0.8,14.8c0.2,0.8,0.5,1.5,0.8,2.2
		c0.7,1.7,0.7,1.7-0.7,2.8c-0.3,1.9,1.8,3.4,0.8,5.6c-6-5.3-11.7-10.8-18.5-15.4c-0.3,1.3-0.5,2.4-0.8,3.7c-0.4-0.3-0.6-0.4-0.7-0.6
		c-3-4.2-6.8-7.5-10.7-10.8c-3.6-3.1-7.1-6.1-10.5-9.4c-3.7-3.7-6.4-8.1-7.6-13.3c-0.2-0.9-0.3-1.7-0.2-2.8c0.3,0.5,0.6,0.9,0.9,1.4
		c1.8,2.7,3.5,5.5,5.3,8.2c1.9,2.7,4.1,5.1,6.8,7c1,0.7,2.1,1.4,3.6,1.8c0-1.7-0.1-3.2-0.3-4.7c-0.5-4.6-1.2-9.2-1.6-13.8
		c-0.4-3.8-0.1-7.5,1.4-11C265.9,349.3,266.4,348.4,267,347.4z"/>
	<path class="st0" d="M518.8,385c-4.1-1.7-7.8-4-11.4-6.5c-6.7-4.6-12.9-9.9-19.1-15.2c-6.4-5.4-12.8-10.8-19.7-15.7
		c-2-1.4-4.1-1.8-6.4-1.7c-1.2,0.1-2.4,0.2-3.6,0.3c-0.5,0-0.9-0.1-1.2-0.6c-1.8-2.8-4.5-4.5-7.5-5.9c-2.3-1-4.7-1.9-7-2.8
		c-2.7-1.1-5.5-2.2-7.9-3.9c-0.1-0.1-0.3-0.1-0.5-0.2c-0.3,0.6-0.6,1.2-0.9,1.9c-0.2-0.2-0.4-0.3-0.5-0.4c-2.5-3.3-5.8-5.6-9.6-7.3
		c-3.1-1.4-6.3-2.6-9.5-3.9c-2.4-1-4.8-1.9-7.2-2.9c-0.6-0.2-1.1-0.5-1.3-1.2c-1.4-4.3-2.8-8.5-4.2-12.8c-0.1-0.3-0.1-0.6-0.1-1
		c1.2,0.4,2.1,1.1,2.8,1.9c1.3,1.4,2.6,2.9,3.9,4.4c1,1.2,2.1,2.4,3.1,3.7c1.2-0.7,2-0.2,2.9,0.5c2.1,1.7,4.7,2.2,7.3,2.7
		c10,1.8,19.6,4.8,28.5,9.6c6.6,3.6,12.7,8,18,13.4c0.6,0.6,1.2,1.1,2.1,1.3c11.3,2.6,20.9,8.4,29.1,16.5
		c6.3,6.2,11.5,13.3,16.5,20.6C516.5,381.5,517.7,383.3,518.8,385z"/>
	<path class="st0" d="M19.3,300.2c1,0.6,1.1,1.3,0.7,2c-1,1.8-0.8,3.7-0.9,5.7c-0.2,3.2-0.4,6.4-0.8,9.6c-0.8,5.7-0.4,11.4,0.6,17
		c1.7,9.5,4.9,18.6,8.3,27.6c2.9,7.6,5.9,15.2,8.2,22.9c2,6.5,3.4,13.2,3.9,20c0.6,8.1,0,16.1-1.9,24.1c-0.3,1.3-0.4,2.6-0.5,3.9
		c-0.1,2-0.2,4.1-1,6.1c-0.2-0.6-0.4-1.1-0.6-1.7c-1.4-4.8-2.2-9.7-2.9-14.6c-1-7.3-2-14.6-3.2-21.9c-0.7-4.4-2.1-8.7-4-12.8
		c-0.2-0.4-0.4-0.8-0.4-1.2c0.1-2.6-0.7-5-1.1-7.5c-0.1-0.4-0.1-0.8-0.2-1.4c-1,0.9-0.8,2-0.8,3.1c0,1.1,0,2.2,0,3.6
		c-0.3-0.4-0.5-0.5-0.6-0.7c-1.8-8.1-4.5-15.9-7-23.8c-1.8-6-3.5-12-4.3-18.1c-1.4-9.8-0.9-19.5,3.2-28.7c1.7-4,3.3-8.1,4.9-12.2
		C18.9,300.9,19.1,300.6,19.3,300.2z"/>
	<path class="st0" d="M200.2,454.4c-1-0.3-2-0.6-3-0.9c-6.2-2-11.9-4.9-17.3-8.4c-5.2-3.3-10.3-6.9-15.5-10.2
		c-2.9-1.9-5.9-3.8-8.9-5.4c-7.2-3.8-13.5-8.8-19.1-14.7c-4.7-5-9.2-10.2-13.8-15.3c-0.5-0.5-0.9-1-1.4-1.6c-0.5,0.2-1,0.4-1.5,0.7
		c-0.2-0.2-0.4-0.4-0.5-0.6c-2.1-3.3-4.7-6.1-7.2-9c-2.5-2.8-5-5.7-7.4-8.7c-2.2-2.8-3.7-6-4.6-9.5c-0.1-0.2-0.1-0.4-0.1-0.6
		c0,0,0-0.1,0.2-0.3c0.4,0.3,0.9,0.6,1.3,1c15.8,12.7,31.4,25.7,46.3,39.4c12.1,11.1,24.9,21.5,37.8,31.8c4.7,3.8,9.4,7.5,14.1,11.3
		c0.3,0.2,0.5,0.5,0.8,0.7C200.3,454.2,200.3,454.3,200.2,454.4z"/>
	<path class="st0" d="M494.3,314.4c0,0.5,0,0.9-0.1,1.3c-0.2,1.9,0.6,3.4,2.1,4.5c1,0.7,2.1,1.2,3.2,1.7c1.7,0.7,3.5,1.2,5.2,1.9
		c0.9,0.3,1.9,0.7,2.8,1.2c0.4,0.2,0.9,0.6,1.1,1c1.6,3.3,3.9,6,6.4,8.6c2,2.1,4,4.1,5.9,6.2c2.1,2.3,3.8,4.8,4.9,7.7
		c0.2,0.4,0.3,0.9,0.4,1.4c0,0.1,0,0.3-0.1,0.6c-0.6-0.5-1.1-0.8-1.5-1.2c-12.2-10-24.9-19.4-38.5-27.5c-7-4.1-14.2-7.9-21.7-11.1
		c-0.9-0.4-1.5-0.8-1.9-1.7c-1.3-2.6-3.5-4.4-6-5.6c-2.7-1.2-5.6-2.2-8.4-3.2c-1-0.3-1.7-0.7-2.2-1.7c-0.8-1.8-2.3-3.1-4-3.9
		c-1.8-0.9-3.7-1.6-5.5-2.3c-2.3-0.9-4.6-1.6-6.8-2.5c-1.6-0.6-3-1.6-4.1-2.8c-0.3-0.4-0.6-0.8-1-1.3c0.9-0.4,1.5,0,2.1,0.3
		c0.7,0.3,1.3,0.8,1.9,1.1c0.7,0.4,1.4,0.7,2.5,0.5c-0.3-0.6-0.6-1-0.8-1.4c-0.3-0.5-0.6-0.9-0.7-1.4c-0.3-0.9,0-1.3,0.9-1.4
		c0.8,0,1.6,0.1,2.4,0.2c0.5,0,1,0.1,1.6,0.2c-0.5-2-2.4-3.3-1.7-5.5c1.4-0.2,2.6,0.1,3.9,0.5c2.7,0.8,5,2.3,7.1,4.1
		c2.5,2.1,4.9,4.4,7.2,6.6c2.6,2.5,5.5,4.6,8.8,6.2c3.3,1.6,6.3,3.6,9.1,6c3.7,3.2,7.6,6.1,11.9,8.3c3.8,1.9,7.8,3.3,11.9,4.1
		C492.9,314.1,493.5,314.2,494.3,314.4z"/>
	<path class="st0" d="M385.6,248c-0.4-1.8-0.8-3.4-1.1-5c-0.2-1.3-0.3-2.5,0.9-3.6c1.7,0.5,2.6,2.2,4.4,3.1c-0.4-2-2.2-3.6-1-5.8
		c5.6,1.2,11.4,1.4,16.9,3.6c0.2-1.6-1.2-2.9-0.6-4.6c0.8,0.3,1.7,0.5,2.6,0.8c-0.1-1.2-0.2-2.3-0.3-3.6c1.4-0.3,2.7-0.7,4.1-1
		c0-0.5,0.1-0.9,0.1-1.3c0.1-1,0.5-1.9,1.5-2.2c0.9-0.3,1.1-0.9,1.1-1.7c0-1.1,0-2.2,0.1-3.3c0-1.1,0.2-2.1,1.2-2.9
		c2.3,0.5,4.2,2,6.3,3c-0.2,1.1-1,1.6-1.9,1.8c-1.2,0.3-1.5,1-1.5,2c0,1.3-0.3,2.5-0.4,3.8c-0.1,1-0.3,2-0.2,3c0,1,0.3,2,0.5,3.1
		c-0.7,0.6-1.6,0.3-2.3,0c-0.9-0.4-1.5,0-2.1,0.6c-1.1,1.3-1.8,2.7-2.2,4.3c-0.9,3.2-0.7,6.4-0.7,9.6c0,1,0,2,0,3.1
		c-0.2,0-0.5,0-0.7,0c-1.3-0.2-1.5-0.1-2.1,1c-0.6,1.1-0.7,2.3-0.6,3.5c0.1,1.7,0.4,3.4,0.5,5c0.1,1.5,0.2,3,0.3,4.8
		c-0.6-0.3-0.9-0.4-1.2-0.6c-2.5-1.8-5-1.9-7.5-0.2c-1.2,0.8-2.2,0.8-3.5,0.3c-3.5-1.3-6.9-2.6-10.1-4.4c-2.5-1.4-4.8-3-6.7-5.2
		c-2.1-2.5-3.2-5.3-3.1-8.6c0-0.2,0-0.3,0.1-0.5c0-0.1,0.1-0.2,0.1-0.3c2.4-0.9,3.2-0.5,7.7,3.2c-0.2-0.5-0.4-1-0.7-1.4
		c-0.4-0.7-0.9-1.3-1.2-2c-0.6-1.2-0.2-2,1.2-1.9C383.9,247.5,384.6,247.8,385.6,248z"/>
	<path class="st0" d="M57.1,394.8c-0.4-0.4-0.9-0.9-1.3-1.3c-9.3-9.7-15.3-21.1-19-33.9c-2.6-8.8-3.9-17.8-3.9-27
		c0-5.8,0.2-11.6,0.4-17.4c0.3-7.2-0.3-14.2-2-21.2c-1.1-4.7-2-9.4-1.8-14.2c0.1-1.8,0.3-3.6,1-5.2c0.3-0.8,0.7-1.5,1.4-2
		c0.1,0.2,0.3,0.3,0.3,0.4c0.7,4.4,2.2,8.6,3.7,12.7c1.4,3.9,2.9,7.7,3.9,11.7c0.9,3.5,1.3,7.2,1.6,10.8c0.6,7.9,0.9,15.8,1.4,23.7
		c0.5,7.7,1.3,15.5,2.4,23.1c1.1,7.4,2.5,14.7,4.7,21.8c1.8,5.9,4.1,11.7,7.1,17.1c0.1,0.3,0.3,0.5,0.4,0.8
		C57.3,394.6,57.2,394.7,57.1,394.8z"/>
	<path class="st0" d="M437.7,310.7c-2.8-3.8-6.7-6.4-10.5-9.1c-2.3-1.6-4.5-3.4-6.6-5.2c-1.3-1.1-2.4-2.3-3.2-4.1
		c0.7,0.3,1.2,0.4,1.7,0.6c4.1,2.1,8.2,4.1,12.3,6.2c4.8,2.4,9.7,4.5,15,5.5c1.2,0.2,2.5,0.3,3.8,0.5c0.5,0.1,1,0.3,1.4,0.6
		c2.3,2.5,5.2,4.4,8.2,5.8c2.7,1.3,5.5,2.4,8.2,3.7c2.7,1.3,5.3,2.7,7.9,4.1c0.5,0.3,1,0.8,1.4,1.2c4,5.2,9.2,8.9,15.1,11.5
		c2,0.9,4.1,1.6,6.2,2.4c0.6,0.2,1.1,0.5,1.4,1.2c1.5,3.2,3.6,6,6,8.5c2.9,3.2,5.7,6.4,8.7,9.4c1.4,1.5,3,2.8,4.7,4
		c3.4,2.5,5.7,5.7,7.1,9.7c1,2.9,1.9,5.8,2.8,8.7c0.9,2.8,1.9,5.6,3.3,8.3c-0.3-0.2-0.6-0.4-0.8-0.7c-2.2-2.7-4.5-5.4-6.6-8.3
		c-2.6-3.6-5.1-7.3-7.7-10.9c-2.8-4-5.8-7.8-9.3-11.2c-2.5-2.5-5.2-4.8-8.2-6.7c-1.5-1-2.9-1.9-4.3-2.9c-2.6-1.8-4.9-3.8-7-6.1
		c-1.9-2.1-3.8-4.1-5.8-6.1c-1.2-1.2-2.5-2.2-3.9-3.3c-1.5-1.2-3.2-1.5-5.1-1.2c-0.4,0.1-0.7,0.1-1.1,0.2c-2.8,0.9-4.9,0-6.8-2.1
		c-1.3-1.5-2.7-3-4-4.5c-1.6-1.7-3.5-2.9-5.8-3.3c-3.1-0.5-5.8-2-8.1-4c-0.8-0.7-1.7-1.3-2.5-1.9c-2.1-1.4-4.4-1.7-6.8-0.9
		C438.3,310.5,438,310.6,437.7,310.7z"/>
	<path class="st0" d="M179.2,428.1c-0.7-0.5-1.3-0.8-1.9-1.2c-11.6-7.9-22.8-16.3-33.5-25.3c-12.4-10.5-24.6-21.2-37-31.8
		c-1.2-1-2.4-1.9-3.6-2.8c-6.3-4.4-12.3-9.2-17.5-14.8c-5.4-5.8-9.7-12.2-12.7-19.5c-0.1-0.3-0.3-0.7-0.4-1
		c-0.2-0.8-0.2-0.8,0.8-1.4c0.2,0.2,0.3,0.4,0.5,0.6c4.3,7.3,9.9,13.6,16.4,18.9c5.8,4.8,11.8,9.3,17.8,13.8
		c6.1,4.7,12.3,9.3,17.6,14.9c2.2,2.3,4.7,4.1,7.5,5.7c11.8,6.7,22.1,15.3,31.3,25.3c5,5.4,9.7,11.2,14,17.2c0.2,0.3,0.5,0.7,0.7,1
		C179.2,427.6,179.2,427.7,179.2,428.1z"/>
	<path class="st0" d="M229.6,161.3c-3.8-3-8.3-5.3-11.1-9.5c-1.7,1.8-2,4.5-0.4,6.5c0.9,1.1,2,2.1,3.1,2.9c1.9,1.3,3.9,2.3,5.9,3.5
		c1.2,0.7,2.3,1.6,3.8,2.5c-0.5,0.1-0.7,0.1-0.8,0.1c-3.8-1.1-7.5-2.5-10.7-5c-2.4-1.9-4-4.2-4.4-7.2c-0.2-1.3,0-2.7,0-4.2
		c-1.8-0.1-3.3,1.7-5.3,0.9c0.3-1.2,0.9-2.1,1.8-2.7c1.1-0.8,2.3-1.5,3.5-2.2c1-0.6,2-1.1,3-1.7c1-0.6,1.8-1.5,2.1-2.7
		c0.3-1.4,1.3-2,2.5-2.4c1.8-0.7,3.6-0.7,5.5-0.6c3,0.2,6,0.6,9,0.2c0.6-0.1,1.2,0.3,1.7,0.6c6,3.8,10.2,9.2,12.9,15.8
		c0.5,1.2,0.9,2.4,1.3,3.6c0.2,0.7,0.6,1.2,1.4,1.3c0.7,0.2,1.4,0.4,2.1,0.6c1,0.3,1.5,0.9,1.5,2c0,3.6,0.1,7.2-0.1,10.8
		c-0.1,2.6-0.7,5.1-1.1,7.7c-0.1,0.4-0.2,0.8-0.5,1.6c-0.5-0.9-1-1.6-1.2-2.3c-0.6-1.9-1-3.8-1.6-5.6c-0.5-1.7-0.9-3.4-1.5-5
		c-0.2-0.7-0.7-1.4-1.3-2.3c-0.2,3.5-0.3,6.7-0.6,9.8c-0.3,3.2-1.1,6.3-2.4,9.6c-0.6-0.9-1.1-1.6-1.5-2.3c-0.6-0.9-1.1-1.9-1.8-2.8
		c-0.5-0.6-1.1-1.2-1.8-1.5c-1.1-0.5-1.4-1.3-1.5-2.4c-0.2-1.4,0.1-2.8,0.5-4.2c0.5-1.5,1.1-3,1.5-4.5c0.4-1.5,0.5-3,0-4.5
		c-0.4-1-0.7-1.1-1.5-0.4c-0.7,0.6-1.2,0.4-2,0.2c-1.6-0.5-3.2-0.8-4.9-1.2c-1-0.2-2.1-0.2-3.1-0.3
		C229.7,163.5,229.5,163.4,229.6,161.3z M230.4,142.7c-0.7,0-1.5,0-2.2,0.1c-1.6,0.2-3.1,0.6-4.5,1.4c-0.8,0.5-1.2,1-1.1,2
		c0.2,1.8,0.8,3.4,1.9,4.8c3.8,5.1,11.4,6.3,16.2,4.2c0.4-0.2,0.9-0.6,1.2-1c1.5-2.8,1.4-5.9-1.2-8.2c-0.8-0.7-1.7-1.3-2.6-1.7
		C235.5,143.2,233,142.8,230.4,142.7z"/>
	<path class="st0" d="M36.7,268c1.6-3.8,2.2-7.8,2.7-11.8c0.3-2.5,0.7-5,1.1-7.5c0.3-1.8,0.7-3.6,1.6-5.5c0.8,1.2,1.1,2.4,1.3,3.6
		c0.6,3.3,0.4,6.6,0.2,9.9c-0.1,2.4-0.3,4.7-0.4,7.1c0,0.9,0.1,1.8,0.2,3c0.9-1,0.8-2.5,2.5-2.5c0,0.5,0.1,1.1,0.1,1.6
		c0,2.2-0.1,4.3,0,6.5c0,1,0.2,2,0.3,3.1c1.6-1.2,1.2-3.6,3.4-4c0,0.3,0,0.6-0.1,0.8c-2.9,11.2-1.2,21.9,4,32.1
		c2.2,4.3,4.7,8.5,7.1,12.7c2.5,4.5,5.1,8.9,7.5,13.4c0.9,1.7,1.5,3.6,2.1,5.5c-2.5-1.6-4.6-3.4-6.7-5.4c-2.1-2-4.2-4-6.4-6.1
		c-0.1,2,1.2,3.6,1,5.8c-5.8-7.2-10.9-14.6-13.8-23.3c-0.6,0-1.1-0.1-1.7-0.1c-0.1-0.3-0.2-0.5-0.2-0.7c0.3-6.4-0.9-12.7-2.2-19
		c-1-4.6-2-9.2-2.1-13.9c0-0.9-0.1-1.9-0.1-2.8C38.3,269.3,38.1,268.4,36.7,268z"/>
	<path class="st0" d="M331.2,173.7c1.1-3.1,0.7-5.8-2.4-7.8c2.9-3.7,3.2-8.2,4.2-12.5c0.5-2.1,1.1-4.3,1.9-6.4
		c0.6-1.6,1.7-2.8,3.1-3.6c0.3-0.1,0.5-0.2,0.8-0.3c-0.6,1.7-1.4,3.2-1.7,4.9c-1.1,5,2,9.1,7.1,9.5c0.4,0,0.9-0.1,1.4-0.3
		c3.5-1.7,5.9-6.5,5.3-10.3c-0.4-2.7-2.2-4.4-5-4.4c-1.3,0-2.6,0.3-3.9,0.5c-0.5,0.1-1,0.3-1.8,0.5c0.5-1.3,1.4-2.1,2.5-2.5
		c1.5-0.5,3.1-0.9,4.6-0.9c2.8-0.1,5.7,0.2,8.5,0.3c1,0,2,0.1,3,0.2c0.4,0,0.8,0.3,1,0.5c0.3,0.5-0.1,0.9-0.6,1.1
		c-0.1,0-0.2,0.1-0.4,0.4c0.8,0.1,1.5,0.2,2.1,0.3c1.9,0.1,1.9,0.1,2.5,2c0.1,0.2,0.1,0.4,0.2,0.6c0.7-0.4,0.9-0.5,3-0.3
		c0.1-0.4,0.2-0.8,0.3-1.3c0.2-1.1,0.3-1.2,1.4-1c0.3,0.1,0.6,0.1,0.9,0.2c0.2-0.6,0.4-1.1,0.5-1.6c0.3,0,0.4-0.1,0.5,0
		c2,0.9,2.2,0.8,2.9-1.3c0.4-1.3,0.7-2.7,1.1-4c0.3-1,0.6-1.9,1-2.8c0.5-1,1.2-1.7,2.4-2.1c1,1.4,1.5,2.9,1.6,4.5
		c0.1,0.8,0.4,1.3,1.1,1.7c1.3,0.6,1.3,0.7,1,2.1c-0.4,2.8-0.3,5.6,0.8,8.2c0.1,0.3,0.3,0.7,0.2,0.9c-0.7,1.5-0.4,3.1-0.4,4.7
		c0,0.1-0.1,0.3-0.1,0.5c-1.2,0-2.1-0.5-3-1.1c-1.1-0.7-2.1-1.6-3.2-2.4c-1.4-1.1-2.9-2.1-4.7-2.5c-0.5-0.1-1-0.2-1.5,0.2
		c-1.1,0.9-2.3,0.6-3.4-0.1c-0.6-0.4-1.1-0.8-1.8-1.4c0.3,0.9,0.5,1.5,0.7,2.2c-0.3,0-0.5,0.1-0.7,0.1c-2.7-0.1-4.8,1.2-6.4,3.2
		c-0.9,1.1-1.7,2.3-2.6,3.4c-2.5,3.5-5.9,5.3-10.2,5.5c-1.8,0.1-3.6,0.4-5.3,0.6c-0.4,0-0.7,0.2-1.2,0.3c0.2,1.1,0.3,2.2,0.7,3.3
		c0.9,2.5,1.9,4.9,2.9,7.4c1.1,2.7,2.3,5.3,3.4,8c1.1,2.8,1.4,5.7,1.2,8.7c0,0.7-0.2,1.3-0.4,2.3c-2-3.3-3.7-6.4-5.6-9.4
		c-1.8-3-3.7-5.9-5.7-9c-0.6,0.3-1.2,0.6-1.7,0.9C332.6,174.5,331.9,174.6,331.2,173.7z"/>
	<path class="st0" d="M407.9,128.3c-0.6,3.6,0.3,6.7,1.5,9.9c0.6,1.6,1.1,3.2,1.6,4.8c0.4,1.4,0.4,2.9,0.1,4.4
		c-0.1,0.4-0.1,0.8-0.2,1.2c-0.5,2.7-0.3,3.3,1.8,5.3c-0.2,0.5-0.4,1-0.7,1.5c-1.7,3-3.5,5.9-5.3,8.9c-2.2,3.6-4.3,7.3-5.7,11.3
		c-1.3,3.7-2.1,7.5-2.1,11.5c0,0.4,0,0.7,0,1.3c-0.8-0.4-1-1-1.2-1.5c-1.2-2.4-1.7-5-1.9-7.6c-0.4-4.8-0.6-9.6-1-14.4
		c-0.1-1.8-0.4-3.6-0.8-5.3c-0.4-2.1-1.2-4.1-2.4-6c0.8-0.6,1.6-0.4,2.3-0.3c0.7,0,1.4,0.2,2,0.2c1.9,0.1,2.8-0.5,3.3-2.9
		c0.3-1.5-0.2-3-1-4.2c-0.7-1.1-1.6-2-2.5-3.2c2.6-2.1,2.4-5,1.9-7.9c-0.3-1.6-1-3.1-1.6-4.6c-0.3-0.7-0.4-1.2-0.2-1.9
		c0.5-1.8,0.9-3.7,1.2-5.5c0.2-1.1,0.5-2.1,1.3-3.2c0.5,0.5,1,0.8,1.3,1.2c0.8,0.9,1.6,1.8,2.4,2.7
		C403.6,125.7,405.4,127.4,407.9,128.3z"/>
	<path class="st0" d="M465.9,368.3c-1.6-0.9-3.1-1.8-4.7-2.7c-3.5-2-6.9-4.1-10.4-6c-4.2-2.3-8.8-3.5-13.5-4.2c-4-0.6-8-1.3-12-2.2
		c-1.9-0.4-3.7-1.2-5.4-2.1c-3-1.5-5.2-3.8-6.6-6.8c-0.4-0.9-1.1-1.5-1.9-1.9c-7.3-3.8-12.3-9.6-14.6-17.6c-0.1-0.4-0.2-0.8-0.3-1.4
		c0.5,0.1,1,0.1,1.3,0.3c0.8,0.4,1.6,0.9,2.4,1.3c0.9,0.4,1.8,1,2.8,1.1c1.3,0.2,2.5,0.7,3.7,1.4c5.1,3.3,10.1,6.5,15.1,9.8
		c5,3.3,9.9,6.7,15.3,9.2c3.4,1.6,6.7,3.3,9.8,5.4c2.6,1.7,5.4,3.1,8,4.8c2.3,1.5,4.5,3.1,6.6,4.9c1.8,1.4,3.1,3.3,4.1,5.4
		c0.2,0.5,0.4,0.9,0.6,1.4C466.1,368.2,466,368.2,465.9,368.3z"/>
	<path class="st0" d="M193.7,131.1c-1.7,0-3.1,0.2-4.4,0c-4.1-0.6-6.4-4.3-5.3-8.3c0.5-1.9,1.5-3.4,3-4.6c4.2-3.4,8.9-5.8,14.2-6.9
		c0.6-0.1,1.1-0.1,1.7-0.2c0,1-0.1,1.9,0,2.7c0.3,1.5,0.6,3,1.1,4.4c0.3,0.8,0.4,1.6,0.2,2.5c-0.9,4.7-1.3,9.5-0.5,14.3
		c0.3,1.8,0.9,3.6,1.5,5.3c0.5,1.6,1.6,2.6,3.1,3.1c0.8,0.3,1.7,0.7,2.4,1.2c1.1,0.7,1.3,1.2,1.4,2.4c-0.1,0-0.2,0.1-0.3,0.1
		c-3-0.2-4.7,1.4-5.8,4c-0.4,1-0.8,1.9-1.3,2.9c-0.2,0.5-0.6,1-1,1.6c-1.1-0.6-2.1-1.1-3.2-1.7c-1,0.5-1.8,1.3-2.3,2.3
		c-0.8,1.3-1.4,2.7-2.1,4.1c-0.5,1.1-1,2.2-1.6,3.3c-0.9,1.7-1.1,1.8-3.1,0.7c0-1.8,0.3-3.6,0.7-5.4c0.9-4,2-7.9,2.8-11.8
		c0.9-3.9,1.2-7.8,0.1-11.7C194.7,133.8,194.1,132.5,193.7,131.1z"/>
	<path class="st0" d="M145.4,51c0.3-0.8,0.7-0.8,1.3-0.5c1.1,0.6,2.2,1.1,3.2,1.7c3.2,1.8,6.1,3.9,8.9,6.3
		c5.2,4.6,10.3,9.2,15.3,13.6c0.4,1.3,0.8,2.3,1.2,3.5c-3.2-0.3-6.2,0-9,1.3c-1,0.5-1.9,1.1-3,1.8c2.8,2,6.1,2.2,8.8,4.1
		c-0.9,0.7-1.7,1.3-2.5,1.8c-1.5,1-3.2,1.9-4.7,2.9c-1.4,0.9-2.6,2.1-3.4,3.7c0.8,1,1.8,1.3,2.9,1.2c2-0.1,4-0.4,6-0.5
		c1.1-0.1,2.3-0.3,3.6,0.3c-0.5,0.4-0.9,0.8-1.4,1.2c-2.8,2.2-5.8,3.8-8.9,5.4c-3.5,1.8-6.9,3.7-10.3,5.5c-0.1,0.1-0.3,0.1-0.5,0.1
		c-0.3-1.3,0.1-2.4,0.4-3.6c0.5-1.6,1.1-3.2,1.6-4.8c0.4-1.5,0.8-3.1,1-4.6c0.2-1.4,0-1.6-1.4-2c-0.4-0.1-0.8-0.1-1.2-0.3
		c-0.3-0.1-0.7-0.5-0.7-0.7c0-0.4,0.3-0.8,0.6-1c0.5-0.3,1.2-0.5,1.8-0.7c0.2-0.1,0.5-0.2,0.7-0.3c0-1.2,0-2.3,0-3.5
		c-0.2-3.2-0.4-6.4-1.2-9.6c-0.6-2.5-1.6-4.8-3.4-6.7c-0.5-0.5-0.6-0.9-0.3-1.6c1-2.9,0.5-5.6-1-8.2c-1-1.6-2.1-3.1-3.2-4.7
		C146,51.9,145.7,51.4,145.4,51z"/>
	<path class="st0" d="M323.3,401.3c-0.6-0.8-1-1.4-1.4-2c-1.1,0.5-1.7,1.6-2.3,2.6c-0.7,1.3-1.2,2.6-1.9,3.8c-0.6,1-1.4,1.9-2.1,2.7
		c-0.5,0.6-1.1,0.6-1.8,0.2c-2.4-1.4-3.7-3.6-3.9-6.3c-0.2-2.6,0.1-5.2,0.8-7.7c1.1-4,2.3-7.9,3.4-11.9c0.5-1.8,0.7-3.7,0.5-5.6
		c-0.1-1.1-0.1-2.1,1-2.9c0.1,0.3,0.3,0.5,0.3,0.8c0.6,3.2,0.7,6.5,0.4,9.8c-0.1,2.3-0.3,4.5-0.4,6.8c0,0.5,0,1,0.3,1.6
		c0.5-0.7,0.9-1.6,1.5-2.1c0.6-0.6,1.6-0.8,2.3-1.3c1.2-0.9,1.8-2.2,2.2-3.6c0.4-1.5,0.7-3,1-4.5c0.3-1.2,0.5-2.4,1.3-3.4
		c1.8,1.6,1.2,4,2.2,5.9c1.2-1.1,0.7-3,2-4c1,0.7,2,1.5,2.9,2.2c1.1-0.7,1.2-1.7,1.3-2.6c0-1.2,0-2.3,0-3.5c0-0.6,0-1.1,0-1.8
		c1.3,0.3,2.1,1,2.9,1.6c1,0.7,1.9,1.5,3,2.1c1.3,0.7,2,0.1,1.8-1.2c-0.3-1.6-0.8-3.3-1.4-4.8c-0.4-1.1-1-2.2-1.5-3.3
		c-0.1-0.3-0.2-0.6-0.3-1c1,0.3,1.7,0.7,2.3,1.3c1.2,1.2,2.4,2.6,3.5,3.8c1.5,1.7,3,3.3,4.6,5.1c-2.3,1.2-1.6,3.9-2.5,6
		c-0.3,0-0.5,0-0.7-0.1c-1.4-0.6-1.7-0.6-2.6,0.6c-1.2,1.6-1.5,3.5-1.8,5.3c-0.3,1.8-0.5,3.5-0.8,5.6c-0.5-0.5-0.9-0.8-1.2-1.1
		c-2.7-2.5-5.4-2.8-8.5-0.8c-2.3,1.5-3.9,3.6-5.4,5.9C324.1,400,323.8,400.5,323.3,401.3z"/>
	<path class="st0" d="M209.1,334.8c2.9,2.6,4,6.3,7,8.7c-0.1-2.7-1-5.2,0.3-7.8c0.3,0.4,0.6,0.7,0.8,1c1,1.8,1.9,3.6,2.9,5.3
		c0.9,1.5,1.8,2.8,2.8,4.2c0.3,0.5,0.8,0.8,1.4,1.4c-0.1-2.4-1.2-4.6,0.3-6.8c0.2,0.4,0.4,0.6,0.4,0.8c2.5,6.7,6.2,12.8,10.4,18.6
		c3.5,4.9,7.1,9.7,10.5,14.6c1.2,1.7,2.3,3.5,3.4,5.3c0.2,0.3,0.3,0.5,0.5,1c-1.3-0.2-2.2-0.7-2.9-1.4c-1.2-1.1-2.4-2.4-3.6-3.6
		c-1.2-1.3-2.4-2.7-3.7-3.8c-2-1.8-4.5-2.2-7.1-1.7c-0.7,1.1-0.4,2.2,0,3.2c0.4,0.9,0.9,1.8,1.4,2.7c0.4,0.7,0.8,1.5,0.4,2.6
		c-0.2-0.4-0.4-0.6-0.5-0.8c-1.9-4.1-4.5-7.6-7.5-10.9c-3.3-3.6-6.6-7.1-10-10.6c-4.7-4.8-6.8-10.6-7.2-17.1
		c-0.1-0.9-0.1-1.8-0.1-2.7C208.9,336.4,209,335.8,209.1,334.8z"/>
	<path class="st0" d="M420.9,162.8c2.8,0,5.1,0.9,7.5,1.6c-0.2,1.6-1.7,1.7-2.6,2.6c0,0.1,0,0.2,0.1,0.3c2,0.9,2.5,2.6,2.2,4.6
		c-0.3,1.8-0.6,3.5-0.8,5.3c-0.2,1.5-0.2,3,0.5,4.5c0.4,1,0.4,1.2-0.5,1.8c-0.4,0.3-0.9,0.5-1.5,0.9c0.1,0.2,0.3,0.5,0.4,0.7
		c1.6,2.1,2,4.5,1.2,7c-1.2,3.9-3.7,6.7-7.5,8.2c-0.3,0.1-0.6,0.1-1,0.3c-0.4-3.5-2.7-5.4-5.2-7.2c-1.1-0.8-2.3-1.7-3.3-2.7
		c-1.8-1.6-2.5-3.6-2-6c0.3-1.3,0.7-2.7,1.1-4c0.3-1.1,0.8-2.2,1.2-3.3c0.4-1.3,0.8-2.5,1.1-3.8c0.2-1.2,0.3-2.5,0.4-4
		c0.7-0.1,1.5-0.3,2.5-0.5c0-0.3,0.1-0.8,0.1-1.3c0.1-1.5,0.9-2,2.3-1.6c0.8,0.2,1.5,0.6,2.2,0.9c1,0.4,1.3,0.2,1.6-0.8
		c0.2-0.6,0.2-1.2,0.2-1.9C421,163.9,421,163.5,420.9,162.8z"/>
	<path class="st0" d="M173,245.1c1.4-0.5,2.9-1.1,4.3-1.7c2.3-1,4.8-1.3,7.3-1.1c1.1,0.1,1.8,0.4,2.3,1.5c0.6,1.2,1.8,2.2,2.8,3.2
		c0.9,0.9,2,1.7,3,2.6c1,1,1.6,2.2,1.8,3.6c-0.1,0.1-0.1,0.3-0.2,0.3c-3.9,2.6-7.7,5.3-11.8,7.7c-5.2,3.1-10.9,4.7-17.1,4.2
		c-1.6-0.1-3.2-0.4-5.2-0.7c1.7-1.8,2.7-3.6,3.2-5.7c0.5-1.8,0.8-3.7,1.3-5.5c0.6-2.2,1.2-4.5,2-6.6c0.7-1.9,2.1-3.3,4.1-4
		c1-0.4,1.2-0.3,1.6,0.8c0.1,0.4,0.2,0.7,0.3,1.1C172.7,244.9,172.8,244.9,173,245.1z"/>
	<path class="st0" d="M182.8,299.6c0.5,0.2,0.8,0.4,1.3,0.5c-0.1,2.3-0.2,4.5,0.8,6.7c0.4,0.8,0.9,1.5,1.4,2.4
		c0.8-0.6,1.5-1.1,2.2-1.7c1,2.9,1.9,5.7,3,8.3c1.1,2.6,2.4,5.1,3.8,8c0.7-2.4-0.6-4.6,0-6.7c1.4,0.2,2.1,1.3,2.7,2.2
		c0.6,1,1.1,2.1,1.7,3.3c0.8-1.3,0.4-2.9,1.5-4.1c0.9,0.6,1.3,1.3,1.2,2.4c-0.1,1.3-0.3,2.6-0.3,3.9c-0.1,4.2,0.5,8.4,1.1,12.6
		c0.5,3.5,0.9,7,0.8,10.6c-0.1,2.8-0.6,5.4-2,7.9c-0.9-0.6-1.3-1.5-1.5-2.4c-0.5-1.5-0.8-3.1-1.2-4.6c-0.4-1.5-0.8-3.1-1.7-4.4
		c-0.2-0.3-0.3-0.6-0.4-0.9c-1-3.7-2.8-6.9-5.2-9.9c-1.9-2.5-4-4.9-5.9-7.4c-2.8-3.5-5-7.3-6.1-11.7c-0.6-2.4-0.7-4.8-0.5-7.2
		c0-0.7,0.2-1.5,0.5-2.2C180.9,303.3,181.9,301.5,182.8,299.6z"/>
	<path class="st0" d="M144.5,24.4c1.1-1.7,2.6-3,4.4-4c1.1-0.6,2.2-0.9,3.5-0.9c1.4,0,2.4,0.6,3.3,1.9c-0.9,0.9-1.8,1.9-2.7,2.8
		c-0.9,0.9-1.9,1.6-2.6,2.5c-1,1.3-1.8,2.7-2.8,4.2c-0.4-0.2-1-0.5-1.8-0.8c-1,0.9-2.2,1.9-3.2,2.9c-3.9,4-6.8,8.7-9.2,13.8
		c-1.8,3.8-3.3,7.6-4.9,11.5c-1.5,3.7-0.9,7,1.5,10.1c1,1.2,2.1,2.4,3.2,3.5c0.8,0.9,1.6,1.7,2.4,2.5c2.1,2.3,3.6,5,3.4,8.4
		c5.1,2.3,7.6,6.6,8.5,11.9c0.8,4.6-0.5,9.3-2.4,11.5c-0.1-0.4-0.1-0.7-0.2-1.1c-0.3-3.4-1.5-6.6-3.3-9.5c-1.1-1.7-2.2-3.4-3.3-5
		c-1.8-2.8-3.4-5.7-4.2-9c-0.5-2-1.7-3.6-3-5.1c-1.2-1.5-2.5-2.9-3.7-4.4c-2.7-3.3-3.5-7-2.5-11.1c0.6-2.4,1.3-4.8,2.2-7.1
		c1.3-3.6,2.6-7.2,3.6-11c1.5-5.8,4-11.1,7.6-15.9C140,25,141.9,24.3,144.5,24.4z"/>
	<path class="st0" d="M80.9,206.4c0.5-1.1,1.3-1.5,2.1-1.8c1-0.4,2.1-0.7,3.1-1.1c0.8-0.3,1.6-0.8,2-1.8c-1.6-0.9-3.2,0.8-4.9-0.4
		c0.4-0.5,0.8-1,1.3-1.4c2.1-2,4.6-3.2,7.2-4.2c4.1-1.5,8.5-2.2,12.8-2.9c1.4-0.2,2.9-0.4,4.4-0.5c-2.2,2.3-5,3.6-7.7,5.5
		c0.5,0.2,0.8,0.4,1.3,0.5c-0.3,1.6-1.8,1.8-2.9,2.7c0.9,1,1.9,1.2,3.1,1.3c1,0,2,0,3,0c0.8,0,1.7,0.1,2.4,1
		c-0.7,0.5-1.3,0.9-2.1,1.4c2,0.5,3.9,0.1,5.7,1.3c-0.5,0.4-0.8,0.8-1.2,1.2c-3.5,3-7.5,5.3-11.7,7.2c-3.3,1.5-6.7,2.9-10,4.4
		c-3,1.4-6,2.8-9.1,4.1c-0.3,0.1-0.6,0.2-1.1,0.5c0.3-1.3,1-2,1.7-2.8c0.7-0.9,1.5-1.6,2.3-2.4c0.7-0.8,1.5-1.5,2.3-2.3
		c-0.5-0.3-0.9-0.6-1.5-0.9c0.4-1.6,1.5-2.6,2.7-3.6c1.1-1,2.3-2,3.6-3.1C86.7,206.8,83.8,207,80.9,206.4z"/>
	<path class="st0" d="M181.1,116.4c0.1,0.8,0.2,1.5,0.3,2.3c-3,0.7-5.9,1.4-8.9,1.9c-1.8,0.3-3.7,0.4-5.5,0.3
		c-2.6-0.1-4.8-1.2-6.3-3.5c0.2-0.2,0.4-0.4,0.6-0.5c3.6-2,7.2-4,10.8-6c5-2.8,10.1-5.2,15.7-6.6c3.3-0.8,6.7-1.3,10.2-1.3
		c1.2,0,2.2-0.4,3-1.1c0.6-0.6,1.2-1.1,1.9-1.7c0.5-0.4,1.1-0.8,1.7-1.1c1.4-0.7,2.6-0.4,3.4,1c0.4,0.7,0.7,1.5,1.1,2.3
		c0.6,1.2,1.2,2.4,1.9,3.8c-0.2,0.1-0.6,0.2-1,0.4c-1.9,0.8-3.9,1.6-5.8,2.4c-0.5,0.2-1.1,0.4-1.6,0.3c-3.3-0.6-6.5-0.1-9.6,1
		C188.7,111.6,184.9,114,181.1,116.4z"/>
	<path class="st0" d="M190.9,335c-1,0-1.8-0.4-2.6-0.9c-0.9-0.6-1.8-1.2-2.8-1.8c-1.3-0.8-2.6-1.3-4.2-0.9c-0.4,0.1-0.9-0.1-1.3-0.3
		c-2.7-2-5.3-4-7.9-6c-2-1.6-4.1-3.2-5.9-5c-2.4-2.3-3.5-5.2-3.3-8.4c0.1-3.2,0.5-6.3,0.8-9.5c0.2-2.3,0.3-4.5,0.4-6.8
		c0-0.7,0.1-1.2,1.1-1.6c0.2,0.5,0.5,1,0.7,1.5c1,2.5,1.8,4.9,2.9,7.4c0.6,1.4,1.3,2.9,2.4,4.1c1.2-0.8,0.5-2.4,1.7-3.2
		c0.5,0.4,0.5,1,0.6,1.5c1.6,6.3,4,12.2,7.5,17.7c2.6,4.1,5.7,7.8,9.1,11.1c0.3,0.3,0.6,0.6,0.9,0.9
		C190.9,334.7,190.8,334.9,190.9,335z"/>
	<path class="st0" d="M246.4,128.3c-2,0.8-2.2,1-2.1,2.9c0,1.3,0.2,2.5,0.3,3.8c0,0.6,0,1.1,0,1.8c-0.2,0-0.4,0-0.5-0.1
		c-2.9-3.3-4.7-7.1-4.7-11.6c0-2,0.5-3.7,1.6-5.4c0.6-1,1.3-1.9,1.9-2.9c0.5-0.8,0.8-1.7,1.2-2.6c0.3-0.8,0.1-1.6-0.3-2.3
		c-0.3-0.6-0.8-1-1.5-0.8c-1.8,0.4-3.7,0.1-5.5-0.1c-1.7-0.2-3.4-0.3-5,0.1c-0.2,0.1-0.4,0.1-0.7,0.1c0.1-1.4,0.7-2.5,1.5-3.4
		c3.4-3.8,7.5-5.9,12.7-5.2c0.4,0.1,0.9-0.1,1.3-0.3c1.6-1.3,3.8-1.3,5.3,1c1.8,2.7,2.3,5.6,2,8.8c-0.1,0.6-0.3,1-0.9,1.2
		c-1.1,0.4-1.7,1.3-1.9,2.3c-0.3,1.4-0.4,2.8-0.6,4.2c-0.1,0.5-0.2,1.1-0.5,1.4C247.6,123.1,246.4,125.4,246.4,128.3z"/>
	<path class="st0" d="M202.6,175c0.5-0.3,0.9-0.5,1.5-0.8c0.1,0.2,0.3,0.4,0.4,0.6c1,2.4,2.2,4.8,3.1,7.3c1.1,2.8,1.9,5.6,2.9,8.3
		c1.1,2.9,2.6,5.5,4.9,7.7c1,0.9,1.9,1.4,3.2,0.8c0.8-0.3,1.8-0.4,2.6-0.3c2.1,0.1,2.8,1.6,1.8,3.4c-0.8,1.4-2.1,2.2-3.6,2.7
		c-1.6,0.5-3.2,0.6-4.8,0c-8.3-2.9-13.2-8.8-15.2-17.2c-0.6-2.3-0.6-4.8-0.9-7.2c0-0.4-0.1-0.8-0.1-1.3c-0.6,0.1-1.1,0.3-2.1,0.5
		c1.9-3.8,2.1-7.8,4-11.3c1,0.6,1,1.6,1.2,2.4c0.1,0.8,0.1,1.7,0.3,2.5C201.9,173.9,202.3,174.4,202.6,175z"/>
	<path class="st0" d="M376.1,220.9c-1-0.5-1.5-1.3-1.8-2.1c-0.9-2.6-0.7-5.1,0.6-7.5c0.6-1.1,1.5-1.7,2.8-1.7
		c6.7-0.1,13.2-1.2,19.6-3.3c0.2-0.1,0.4-0.1,0.7-0.1c0.1,0.3,0.2,0.6,0.2,0.9c0,0.3,0,0.5,0.1,0.8c1.4,0.8,3.2,0.3,4.5,1.6
		c-0.3,0.4-0.5,0.7-0.8,1c-0.7,0.5-0.8,1.3-0.6,2c0.3,1.2,0.8,2.3,1.3,3.7c0-0.2,0.1-0.1,0,0c-2.1,2-3.6,4.5-5.3,6.9
		c-1.2,1.8-2.6,3.5-4.1,5c-1.9,2-5.5,3.1-9.1,1.6c0.4-0.5,0.7-0.9,1.1-1.3c1-1.2,2.1-2.4,3-3.6c0.6-0.8,1.1-1.8,1.4-2.8
		c0.6-1.5,0.3-3-0.8-4.1c-0.9-0.9-1-1.7-0.3-2.7c-2.3-2.6-6.2-2.4-8.2-0.7c-1.3,1.1-2.3,2.4-3.1,4
		C377,219.1,376.6,219.9,376.1,220.9z"/>
	<path class="st0" d="M252.8,249.2c-1.4,1.7-3,1.8-4.8,1.2c-0.9-0.3-1.9-0.6-2.9-0.8c-1-0.3-2-0.1-2.8,0.6c-0.7,0.6-1.3,0.5-2.1,0.2
		c-0.7-0.3-1.3-0.7-2-1c-0.5-0.3-1-0.6-1.5-0.9c-0.3,0.3-0.5,0.5-0.8,0.7c-2,1.7-4,1.8-6.2,0.2c-0.3-0.2-0.7-0.2-1.1-0.3
		c-0.2,0-0.4,0.1-0.6,0.1c-2,0.3-3-0.2-4.1-1.9c-1.2-1.9-1.2-4-0.9-6.1c0.2-0.9,0.4-1.8,0.7-2.6c1.3-3.1,2.7-6.2,4.1-9.3
		c1.2,0.4,1.8,1.2,2.1,2.2c0.4,1.2,0.7,2.4,0.9,3.7c0.3,1.1,0.4,2.3,0.8,3.4c0.3,0.8,0.8,1.5,1.2,2.3c1-0.3,1.9-0.6,2.8-0.8
		c0.9-0.2,1.8-0.3,2.7-0.2c0.6,0.1,1.4,0.4,1.7,0.9c0.6,1,1.4,1.2,2.4,1.3c2.2,0.3,4.5,0.6,6.7,1c1.5,0.3,3,0.6,4.4,1.2
		c0.9,0.3,1.8,1,2.5,1.6c1.1,1,1.2,2,0.3,3.2c-0.8,1.1-1.7,1.2-3,0.5C253.2,249.4,253.1,249.3,252.8,249.2z"/>
	<path class="st0" d="M343.6,92.2c-1.3,1.9-3.1,2.4-5.1,2c-1.2-0.2-2.3-0.7-3.5-1c-1.8-0.6-3.6-1.2-5.4-1.7
		c-2.2-0.6-4.5-0.6-6.6,0.5c-1.6,0.7-3.2,0.8-4.8,0.3c-2.3-0.7-4.5-1.6-6.7-2.5c-2.3-0.9-4.5-1.9-6.7-2.7c-1.4-0.5-2.7-3.8-2-5
		c0.2-0.3,0.6-0.5,1-0.6c0.5-0.1,1-0.2,1.6-0.2c1.3-0.1,2.6-0.4,3.6-1.6c0.6,0.5,1.2,0.8,1.7,1.3c0.6,0.6,1.2,0.7,2,0.1
		c0.4-0.3,0.9-0.6,1.4-0.8c1.3-0.6,1.8-0.5,2.8,0.5c0.2,0.2,0.3,0.4,0.5,0.6c0.2,0,0.5,0,0.8,0c2.4-0.3,4.6,0.1,6.8,1
		c0.9,0.4,1.8,0.8,2.8,1.1c1.7,0.5,3.4,1.1,5.2,1.4c1.5,0.3,2.8,0.9,4,1.8c0.7,0.6,1.3,1.2,2,1.8C340.2,90,341.6,91.4,343.6,92.2z"
		/>
	<path class="st0" d="M276.1,243.2c-1.6-1.9-3.6-3.3-5.6-4.8c-1.9-1.4-3.9-2.7-5.4-4.6c-2.1-2.6-2.2-5.3-0.7-8.3
		c0.9-0.1,1.7,0.3,2.4,0.8c1.2,0.8,2.4,1.6,3.4,2.5c2.4,2.1,5.1,3.4,8.3,4c1.6,0.3,3.1,0.6,4.6,1c6.3,1.4,9.2,4.4,9.9,10.8
		c0.4,3.6,0.5,7.1,0.8,10.7c0,0.2-0.1,0.5-0.2,1c-0.7-0.5-1.3-0.9-1.6-1.4c-0.8-1.2-1.6-2.5-2.3-3.8c-0.8-1.6-1.4-3.3-2.3-4.9
		c-0.6-1.1-1.3-2.2-2.2-3.1c-1.2-1.2-2.8-1.7-4.5-1.3C279.2,242.2,277.7,242.7,276.1,243.2z"/>
	<path class="st0" d="M302.1,103.5c3.2-2,6.4-1.5,9.6,0.1c-0.1,2.9,0.1,5.6,1.8,7.9c-1.4,2.2-1.4,2.2,0.1,3.8c0.3-0.1,0.7-0.2,1-0.4
		c1.7-0.8,4.1,0.9,3.9,3.3c-0.1,0.7-0.3,1.6-1.1,1.7c-0.5,0.1-1-0.5-1.7-0.8c-0.6,0.3-0.7,1-1,1.7c-0.4,1-0.8,1.9-2.2,2
		c0.2,0.8,0.4,1.5,0.6,2.2c0.2,0.8,0.4,1.5,0.5,2.3c0.1,0.8-0.2,1.4-1,1.8c-0.7,0.3-1.4,0.5-2.2,0c-1-0.6-2.1-1.1-3.2-1.6
		c-0.8-0.4-1.7-0.6-2.4-1.1c-1.6-0.9-1.9-2.2-1.1-3.8c0.4-0.7,0.8-1.3,1.2-2c0.4-0.8,1-1.5,1.3-2.4c0.6-1.5,0.4-2.9-0.8-4.1
		c-0.1,0.1-0.3,0.1-0.4,0.2c-1.5,1.7-2.9,1.7-4.3-0.1c-2.4-3.1-2.3-6.7,0.2-9.7c0.2-0.2,0.4-0.5,0.5-0.8
		C301.6,103.6,301.9,103.5,302.1,103.5z M303.9,107.2c-0.6,1.1-0.4,2,0.1,3.1C304.7,109.2,304.7,108.3,303.9,107.2z"/>
	<path class="st0" d="M278.3,117.6c-1.9-2.5-4.5-4.1-7-5.7c-1.7-1.2-3.3-2.4-4.9-3.8c-0.6-0.5-1.2-0.6-1.9-0.4
		c-1.5,0.4-2.6,1.4-3.4,2.7c-0.7,1-1.3,2-1.9,3c-1.1-0.1-1.3-1-1.5-1.8c-1.8,0-2.3-1.2-2.6-2.6c-0.5-2.3,0.1-4.3,1.6-6
		c3.7-4.3,11-5.1,15.5-1.5c0.8,0.6,1.5,0.9,2.4,0.7c1.2-0.3,2.1,0.1,3,0.9c2.7,2.4,4.6,5.3,6,8.6c0.1,0.2,0.1,0.4,0.1,0.6
		c-1,0.6-1.4-0.4-2-0.7c-0.9,0.4-1.2,1.1-1.4,1.9c-0.2,0.8-0.4,1.6-0.6,2.5C279.6,116.6,279.2,117.3,278.3,117.6z"/>
	<path class="st0" d="M339.6,135.2c-2.1-0.4-3-1.3-2.8-3.2c0.1-1.5,0.4-3,0.7-4.5c0.4-1.7,0.1-3.2-0.8-4.7c-1.3-2.1-2.6-4.1-3.9-6.2
		c-0.9-1.5-1.8-3.1-2.4-4.8c-0.9-2.1-0.6-3.1,1.2-4.6c2-1.7,4.2-2.9,6.7-3.7c1.2-0.4,2.2-0.3,3.4,0.2c5.6,2.4,8.7,6.7,9.3,12.7
		c0.2,2.4,0.2,4.7,0.3,7.1c0,0.2,0,0.4-0.1,1c-0.6-0.7-1-1.1-1.2-1.6c-0.8-1.5-1.6-3.1-2.4-4.6c-0.8-1.6-1.6-3.3-2.5-4.9
		c-0.8-1.3-1.9-2.4-3.2-3.2c-0.9-0.6-1.7-0.4-2.5,0.1c-0.8,0.5-1.2,1.2-1.1,2.1c0.1,0.5,0.2,1,0.4,1.5c0.3,0.7,0.6,1.3,1,2
		c2,3.1,2.3,6.5,1.7,10c-0.4,1.9-0.8,3.8-1.2,5.7C340,132.7,339.8,133.9,339.6,135.2z"/>
	<path class="st0" d="M412.3,428.3c-0.1-2.3,0.2-4.3,1-6c0.9-2.2,2.1-4.3,3.2-6.4c1-1.9,2.2-3.7,3.1-5.7c0.7-1.4,1.1-2.8,1.5-4.3
		c0.6-2,0.5-4.1-0.2-6.1c-0.4-1-0.7-2.1-1.1-3.1c-0.8-2.3-0.9-4.5-0.2-6.8c0.4-1.4,0.8-2.7,1.2-4.1c1.3-3.8,1.3-7.6,0.4-11.5
		c-0.4-1.4-0.7-2.9-1-4.3c-0.1-0.5-0.1-0.9-0.2-1.6c0.6,0.2,0.9,0.4,1.3,0.6c2.9,1.9,4.2,4.9,4.4,8.2c0.2,3,0.3,6,0.2,9
		c-0.1,3.7,0,7.4,1.3,10.9c1,2.6,0.8,5.2-0.3,7.7c-1.2,3-2.8,5.8-4.6,8.4c-1.6,2.2-3.3,4.4-4.8,6.7c-1.7,2.6-3.2,5.2-4.8,7.8
		C412.8,427.8,412.7,427.9,412.3,428.3z"/>
	<path class="st0" d="M388.7,123.9c-4.2,0.5-8-1-11.8-0.3c-0.3-0.4-0.6-0.8-1-1.5c-0.3,1.2-0.1,2.2-0.1,3.1c0.1,0.9,0.2,1.8,0.2,2.7
		c0,1.3-0.6,2.2-2,2.7c-0.5-0.6-1-1.1-1.4-1.7c-1.3-2.1-2.3-4.3-2.7-6.7c-0.2-1.2-0.7-2.3-1.5-3.3c-0.7-0.8-1.4-1.6-2.1-2.4
		c-2.4-2.8-0.3-6.1,2.4-6.3c1.3-0.1,2.7-0.1,3.9,0.2c3.6,0.8,6.9,2.4,9.5,5.1c0.3,0.3,0.6,0.6,1,0.7c1.8,0.6,2.9,1.8,3.7,3.5
		C387.6,121.1,388,122.4,388.7,123.9z"/>
	<path class="st0" d="M232.7,134.9c-1-0.2-1.8-0.3-2.6-0.4c-2.6-0.1-5.3-0.2-7.9-0.3c-3.4-0.1-6.9-0.1-10.2-0.9
		c-1.8-0.4-3.4-1.1-4.8-2.3c-0.7-0.6-1-1.3-1-2.2c0-1.9,0.7-3.4,1.9-4.7c2.1-2.2,4.7-3.3,7.6-4c0.3-0.1,0.8,0.1,1.1,0.3
		c3.4,2.7,6.8,5.5,10.2,8.3c1.7,1.4,3.2,3.1,4.7,4.7C232,133.8,232.3,134.3,232.7,134.9z"/>
	<path class="st0" d="M372,95.4c-3.1-1.8-6.1-3.4-8.9-5.2c-1.5-0.9-2.8-2-4.1-3.3c-1.7-1.7-1.6-3.2,0.2-4.9c1.8-1.7,4.1-2.6,6.5-3.2
		c0.5-0.1,1-0.2,1.6-0.3c1.5-0.2,2.7,0.1,3.5,1.5c0.6,1.1,1.7,1.7,2.9,2.2c1.6,0.7,3.3,1.2,4.9,1.8c1.5,0.6,3.1,1.1,4.3,2.6
		c-0.4,0.3-0.8,0.6-1.2,0.7c-1.1,0.4-2.1,0.9-3.2,1.3C375.1,89.8,372.4,91.3,372,95.4z"/>
	<path class="st0" d="M229.4,299c-0.6-3.1-2.8-4.5-5.6-5.1c-1.4-0.3-2.8-0.6-4.3-1c0.2-0.7,0.4-1.3,0.6-1.8c0.9-2.1,2.5-3.6,4.4-4.8
		c2.1-1.3,4.4-2.1,6.7-2.7c0.6-0.2,1.2-0.3,1.9-0.5c-0.2-0.4-0.4-0.7-0.6-1.1c1.6-1.8,3.2-3.8,5.3-5.1c2.2-1.4,4.4-1.8,7-0.5
		c-1,2.8-3,4.4-5.1,5.9c-0.3-0.1-0.4-0.1-0.4-0.2c-1.1-1.4-1.5-1.5-3-0.6c-0.6,0.3-1.1,0.7-1.6,1.3c1.3-0.1,2.5-0.3,3.8-0.4
		c0.5,0.4,0.7,0.9,0.5,1.5c-1.8,5.7-4.7,10.8-9,15C229.7,298.9,229.6,298.9,229.4,299z"/>
	<path class="st0" d="M192.6,257.6c-0.2,2.2-1.1,3.9-2.3,5.3c-1.1,1.3-2.3,2.4-3.5,3.7c-0.4,0.4-0.7,0.8-1,1.2
		c-0.1,0.2,0.1,0.5,0.1,1.1c2.2-2.6,4.7-4.1,7.8-4.6c1-0.1,2-0.3,3,0.3c-1.2,1.8-2.4,3.5-4.1,4.8c-1.3,1-2.8,1.5-4.4,1.4
		c-1.2-0.1-2.1,0.3-3.1,0.9c-1.7,1.1-3.7,1.6-5.7,1.9c-4,0.6-8.1,0.7-12.1,0.3c0.7-1.4,6.8-6.5,11.6-9.8
		C183,261.3,187.4,259,192.6,257.6z"/>
	<path class="st0" d="M271.1,447.7c-4.3-1.5-7.8-3.9-10.9-7c-5.5-5.4-9-11.9-11.5-19.1c-0.8-2.3-1.4-4.8-2-7.2
		c-0.2-0.7-0.3-1.3-1.1-1.6c-0.2-0.1-0.5-0.6-0.5-0.7c0.1-0.3,0.5-0.6,0.8-0.7c0.7-0.2,1.2,0.2,1.6,0.7c1.5,2.1,3.1,4.1,4.7,6.2
		c6.6,8.9,12.8,18.1,18.2,27.8C270.6,446.8,270.9,447.2,271.1,447.7z"/>
	<path class="st0" d="M236.4,71c0.7,1,0.7,2.2,0.3,3.2c-0.7,1.5-1.5,2.9-2.3,4.3c-0.2,0.3-0.6,0.5-0.9,0.6
		c-6.7,2.3-11.9,6.7-15.8,12.6c-0.1,0.2-0.3,0.3-0.4,0.5c-1.6-0.2-3.2-0.5-4.8,0.2c-1.5,0.6-2.9,1.3-4.4,1.9c-1-1.3-1-1.8,0.1-2.8
		c0.3-0.2,0.4-0.6,0.5-0.9c1-3.7,3.4-6.3,6.6-8.2c2-1.2,4.2-2.2,6.4-3.2c1.7-0.8,3.5-1.5,5.2-2.3c1.7-0.7,3.2-1.8,4.5-3.1
		c0.6-0.7,1.4-1.3,2.1-1.9C234.3,71.3,235.3,70.9,236.4,71z"/>
	<path class="st0" d="M208.1,68c-2.4-0.3-4.3-1.4-5.2-3.4c-3.9-8.2-8.9-15.8-14.3-23.1c-2.9-3.9-5.9-7.8-8.8-11.8
		c-0.2-0.3-0.4-0.7-0.7-1c0.6-0.7,1.2-0.4,1.7,0c1.3,1.1,2.7,2.2,3.9,3.5c2.3,2.5,4.5,5.2,6.7,7.8c2.8,3.5,5.9,6.9,9.3,9.9
		c1.7,1.6,3.3,3.3,4.7,5.1c2.6,3.3,3.5,7.2,3.1,11.5C208.4,67,208.2,67.4,208.1,68z"/>
	<path class="st0" d="M324.9,137.8c4.2,2,4.1,5,2.8,7.9c-0.7,1.6-1.8,3-2.7,4.4c-0.5,0.9-1.3,0.9-2.2,0.6c-1-0.3-1.8-0.8-1.8-1.9
		c0-1,0.2-2,0.4-2.9c0.3-1.1,0.9-2.2,1.3-3.3c-4.1-3.9-4.2-8.7-3.6-13.7c0.5-0.2,0.9-0.3,1.3-0.4c0-0.2,0.1-0.4,0.1-0.5
		c-0.3-0.9-0.7-1.8-1-2.6c-0.3-0.8-0.8-1.6-1-2.5c-0.5-1.6-0.1-2.5,1.6-3.4c2.5,2.4,3.9,5.3,4.7,8.6
		C325.4,131.2,325.5,134.5,324.9,137.8z"/>
	<path class="st0" d="M263.9,140.9c-3.2-0.6-4.9-2.7-4.9-6.1c0-2.8,0.9-5.3,2.9-7.3c0.9-0.9,1.9-1.6,3.1-1.9
		c0.8-0.2,1.2-0.7,1.7-1.2c1-1.1,2.1-2.1,3.3-2.9c0.7-0.5,1.7-0.6,2.5-0.6c1.4,0.1,2.1,1.1,2,2.5c-0.1,2-1,3.6-2.5,5
		c-0.9,0.8-2,1.6-2.9,2.4c-0.8,0.6-1.5,1.3-2.2,2.1c-0.7,0.8-1.1,1.7-1.2,2.9C265.6,137.6,265.1,139.3,263.9,140.9z"/>
	<path class="st0" d="M291.9,141.6c-1.9-4.9-2.5-9.9-2.2-15.2c-1.5,0.2-2.6,0.9-3.5,1.9c-1,1.1-2,2.3-2.9,3.6c-1,1.4-1.9,2.9-3,4.3
		c-0.8,1-1.9,1.8-2.9,2.7c-0.5,0.4-1.2,0.6-2,0.9c1.3-1.8,2.5-3.4,3.5-5c1.3-2.2,2.3-4.6,3.5-6.9c1.4-2.7,2.7-5.4,4.1-8
		c0.5-0.9,1.2-1.7,2-2.9c0.2,0.9,0.4,1.4,0.5,1.9c0.3,1.3,0.6,1.5,1.8,1.4c1.4-0.1,1.4-0.1,1.8,1.2c0.8,2.3,1,4.8,0.8,7.2
		c-0.2,3.2-0.6,6.3-0.9,9.5c-0.1,1.2-0.3,2.4-0.4,3.6C292.1,141.6,292,141.6,291.9,141.6z"/>
	<path class="st0" d="M101.2,147.3c-0.1,1-0.7,1.4-1.3,1.7c-0.6,0.3-1.2,0.5-1.8,0.6c-3,0.6-5.3,2.3-7.1,4.6
		c-1.2,1.5-2.2,3.1-3.3,4.6c-1.1,1.6-2.3,3.2-3.4,4.7c-0.4,0.5-0.9,0.9-1.5,1.5c0.2-2.9,0.5-5.4,0.5-7.9c0-2.5-0.2-4.9-0.4-7.6
		c0.5,0.4,1,0.8,1.4,1.2c0.8,0.8,1.7,1.5,2.8,1c1-0.5,1.1-1.6,1-2.6c-0.1-1.2-0.5-2.4-0.8-3.5c-0.2-0.6-0.5-1.3-0.9-2.2
		c0.8,0.2,1.3,0.2,1.8,0.4c3.6,0.9,7.1,1.9,10.7,2.8C99.6,147,100.4,147.1,101.2,147.3z"/>
	<path class="st0" d="M284.5,100.4c1.1-1.4,1.9-2.6,2.9-3.8c0.3-0.4,0.7-0.8,1.1-1.1c0.6-0.5,1.3-0.7,2-0.3c0.7,0.5,1.5,1.1,1.3,2
		c-0.4,2.7,0.8,4.8,2.2,6.9c0.7,1,1.2,2.1,1.6,3.2c0.4,1.2,0.3,1.5-0.8,2c-0.9,0.4-1.2,1-1.5,1.9c-0.5,1.7-1.1,3.3-1.6,5
		c-0.1,0.4-0.3,1.1-0.9,0.9c-0.4-0.1-0.9-0.6-1-1c-0.3-1-0.4-2.1-0.5-3.1c-0.1-1-0.4-1.5-1.5-1.7c-1.8-0.4-2.5-1.5-2.5-3.3
		c0-1.5,0.5-2.9,1-4.3c0.5-1.1,0.4-1.2-0.5-2C285.5,101.3,285,100.9,284.5,100.4z"/>
	<path class="st0" d="M203.6,278c-1.3-2.9-0.3-8.2,3.6-11.2c2.9-2.2,7.6-3.3,11-0.9c-1.2,1.3-2.7,2.2-4.1,3.2c-1.4,1-2.9,2-4.3,2.9
		c0,0.1,0.1,0.2,0.1,0.3c0.6-0.3,1.3-0.7,1.9-1.1c1.3-0.8,2.5-1.8,3.8-2.5c1.4-0.8,2.9-1.3,4.7-1.2c-0.2,0.4-0.3,0.8-0.6,1
		c-1.3,1.3-2.6,2.6-4.1,3.8c-3.4,2.6-7.3,4.3-11.5,5.5C204.1,277.9,203.8,278,203.6,278z"/>
	<path class="st0" d="M369.7,328.9c-3.6-2.4-6.9-4.5-10.2-6.8c-3-2.1-5.1-4.9-5.7-8.6c-0.3-1.6-0.3-3.2,0-4.9
		c0.3,0.1,0.5,0.2,0.7,0.3c3.4,2.4,6.7,4.9,9.5,8c2.9,3.2,5,6.8,5.6,11.1C369.6,328.2,369.6,328.4,369.7,328.9z"/>
	<path class="st0" d="M138.2,139c-1.4,1.6-2.9,2.6-4.4,3.5c-3.3,2-7,3.2-10.7,4.1c-3.6,0.8-7.2,1.5-10.8,2.2
		c-0.4,0.1-0.8,0.1-1.5,0.1c0.4-0.6,0.7-1,1-1.4c2.4-2.9,5.5-4.9,9-6.2c5.3-2.1,10.8-2.7,16.4-2.4
		C137.4,138.8,137.7,138.9,138.2,139z"/>
	<path class="st0" d="M429.9,160.1c-4.5-1.4-8.9-2.6-12.1-6.9c3.1,0.3,5.9,1.5,8.6-0.1c-0.1-1.1-0.6-2-1.2-2.9
		c-1-1.4-2.2-2.7-3.3-4.1c-0.8-1-1.6-2-2.3-3c-0.3-0.4-0.4-0.9-0.5-1.5c5.6,1.9,10.7,4.4,13.8,9.8c-0.8,1.1-1.5,0.1-2.4,0.1
		c0.7,1.8,1.4,3.6,2.1,5.3c-1.5,1.1-2.4-0.5-3.7-0.5C428.7,157.6,430.3,158.5,429.9,160.1z"/>
	<path class="st0" d="M322.8,226.9c-1.2,0.8-2.4,1.6-3.7,2.4c-1.2,0.8-2.4,1.6-3.6,2.5c-0.4,0.3-0.7,0.7-1.1,1.1
		c-0.6,0.7-1.1,1.5-0.2,2.4c0.1,0.1,0.1,0.3,0.1,0.6c-0.4,0.1-0.8,0.2-1.2,0.2c-3.2,0.2-6.2-0.4-9.2-1.4c-2.7-0.9-5.3-2-7.9-3.1
		c-3.6-1.5-7.2-3-11.1-3.5c-1.5-0.2-2.9-0.2-4.6-0.3c0.4-0.3,0.6-0.5,0.9-0.7c1.8-0.8,3.7-0.9,5.6-0.7c3.1,0.3,6.1,1.1,8.7,2.9
		c0.5,0.4,1.1,0.6,1.7,0.7c5.1,1.5,10.2,1.3,15.3-0.1c2.9-0.9,5.8-2,8.7-3c0.5-0.2,1-0.4,1.4-0.5
		C322.7,226.7,322.7,226.8,322.8,226.9z"/>
	<path class="st0" d="M218.8,224.9c-0.1,1.2-0.1,2.4-0.2,3.6c-0.2,3.1-0.5,6.1-1.6,9c-0.5,1.5-1.2,2.9-2.1,4.2
		c-1.3,1.9-3.3,2.7-5.6,2.5c-1.1-0.1-1.3-0.2-1.3-1.3c-0.1-2.6,0.4-5.1,1.7-7.3c0.9-1.5,1.9-2.9,3.1-4.2c1.8-2.2,3.8-4.3,5.7-6.4
		C218.4,225,218.5,225,218.8,224.9z"/>
	<path class="st0" d="M302.8,145.9c-0.6-0.6-1.2-1.1-1.7-1.8c-4.1-5.6-6.2-11.9-5.9-18.9c0.1-1.7,0.5-3.4,1.7-5.1
		c0.4,0.7,0.8,1.2,1.1,1.7c2,3.3,3.1,6.9,3.7,10.7c0.6,4.2,0.9,8.4,1.3,12.6c0,0.2,0,0.4,0,0.6C303,145.7,302.9,145.8,302.8,145.9z"
		/>
	<path class="st0" d="M423.3,207.2c0.3,1.1,0.6,2.1,0.8,3c-2.2,2-6,2.3-8.3,0.7c-0.9-0.6-1.6-1.4-1.7-2.5c-0.1-0.7-0.5-1.1-1-1.5
		c-0.7-0.5-1.3-1.2-1.9-1.9c-0.5-0.6-0.7-1.4-0.5-2.2c0.2-0.8,0.6-1.3,1.5-1.4c3.1-0.4,6.2-0.1,9.2,1c0.3,0.1,0.6,0.2,0.9,0.4
		c1.8,1,2.7,2.3,1.1,4.2C423.4,207.1,423.4,207.2,423.3,207.2z"/>
	<path class="st0" d="M265.8,199.2c0.9,0.5,0.7,1.2,0.6,1.8c-0.2,1.7,0.1,3.4,0.8,4.9c0.5,1,0.7,1.1,1.7,0.7
		c0.7-0.2,1.4-0.5,2.1-0.7c0.2-0.1,0.4,0,0.7,0.1c0.1,0.9-0.5,1.5-0.9,2.1c-1,1.6-1,1.8-0.7,3.6c-1.2,1.4-2.5,2.7-4.3,3.2
		c-1,0.3-1.9,0.3-2.6-0.7c-0.9-1.3-2.4-1.6-3.6-1.8c-0.9-1.1-1.6-2.1-2.5-3.1c0.3-0.2,0.7-0.6,1.1-0.9c1.1-0.9,2.3-1.7,3.4-2.6
		c1.9-1.6,3.3-3.5,4-5.9C265.5,199.7,265.6,199.5,265.8,199.2z"/>
	<path class="st0" d="M351,135.4c-1.1-2-1-3.5,0.4-5c0.7-0.8,1.6-1.5,2.4-2.3c1.3-1.2,2.3-2.6,2.2-4.5c0-1,0.6-1.6,1.4-2.1
		c2.1-1.2,5.5-0.7,7.2,1.1c1.3,1.4,1.4,3.5,0,4.8c-1,0.9-2.3,1.7-3.5,2.3c-1.4,0.7-2.9,1.1-4.4,1.7C354,132.6,353,133.2,351,135.4z"
		/>
	<path class="st0" d="M261.6,158c-2.1-3.7-4.4-7.4-6.3-11.1c-1.4-2.6-1.7-5.5-1.2-8.5c0.1-0.3,0-0.6,0.2-0.8
		c0.1-0.2,0.4-0.6,0.6-0.6c0.3,0.1,0.7,0.3,0.8,0.6c0.2,0.7,0.2,1.3,0.3,2c0,0.3,0.1,0.6,0.3,0.9c0.2-0.6,0.3-1.3,0.5-1.9
		c1.7,0.4,4,3.5,5.3,6.9C263.7,149.6,263.6,155.1,261.6,158z"/>
	<path class="st0" d="M63.1,188.9c1.1,1.2,1.8,2.5,1.4,4c-2.7,9.7-1.8,19.2,2,28.4c0.1,0.2,0.2,0.5,0.3,1c-1.8-0.6-3.1-1.5-4.1-2.8
		c-1.6-1.9-2.5-4.2-2.9-6.6c-0.6-3.5-0.5-7.1,0.1-10.5c0.8-4.3,1.8-8.5,2.8-12.8C62.8,189.5,62.9,189.4,63.1,188.9z"/>
	<path class="st0" d="M198.2,211.5c3.7,1.6,7,0.7,10.4-0.5c1-0.4,2.1-0.6,3.3-1c-1.1,3.1-2.1,6-3.2,8.8c-0.5,1.2-1.2,2.2-2.2,2.9
		c-1.9-0.8-3.6-1.6-5.4-2.4c-0.6-0.3-1.1-0.5-1.7-0.9c-1.6-1-2.2-2.5-1.9-4.3C197.7,213.2,198,212.4,198.2,211.5z"/>
	<path class="st0" d="M219.4,220.2c-0.8-5.3,2.2-10.4,6.4-11.4c0.2,0.7,0.2,0.7,0,2.3c0.5-0.2,1-0.3,1.3-0.6
		c0.6-0.5,1.1-1.2,1.6-1.8c0.5-0.6,1-1.2,1.6-1.8c0.4-0.4,1-0.6,1.6-0.2c0.5,0.3,0.7,0.7,0.7,1.3c0,3-1,5.6-3.4,7.5
		c-0.6,0.5-1.3,1-2,1.3C224.6,218,222.1,219,219.4,220.2z"/>
	<path class="st0" d="M227.4,318c0.2,1.6,0.4,3.1,0.6,4.6c0.4,2.7,0.9,5.3,1.1,8c0.2,2.4,0.1,4.7,0.1,7.1c0,0.6-0.2,1.1-0.3,1.8
		c-1.4-0.6-2.3-1.6-3.1-2.7c-1.9-2.8-2.8-6-2.9-9.4c0-2.3,0.3-4.4,1.4-6.4C225,319.7,226,318.7,227.4,318z"/>
	<path class="st0" d="M201.3,79.4c-0.8,0.9-1.6,1.7-2.3,2.5c-0.7,0.8-1.4,1.5-0.4,2.7c-0.5,0.3-0.9,0.4-1.3,0.6
		c0,0.1,0.1,0.3,0.2,0.4c0.8,0.5,1.5,0.9,2.3,1.3c0.7,0.3,1.5,0.5,2.2,0.9c1.7,0.8,2.1,1.7,1.6,3.7c-0.8,0.3-1.1-0.4-1.5-0.8
		c-0.7-0.7-1.2-0.6-1.6,0.2c-0.3,0.6-0.4,1.2-0.6,1.6c-1.9-0.8-3.8-1.6-5.6-2.4c-0.9-0.4-1.8-0.8-2.6-1.4c-1.2-0.9-1.5-2-0.8-3.3
		c0.6-1.1,1.5-2.2,2.4-3.1c1.5-1.6,3.3-2.8,5.5-3.3C199.9,78.7,200.2,78.8,201.3,79.4z"/>
	<path class="st0" d="M316.5,149.7c-1-0.5-1.2-1.4-1.5-2.2c-0.3-1-0.5-1.9-0.6-2.9c-0.1-0.9-0.6-1.4-1.4-1.8c-1-0.5-2-0.9-3-1.5
		c-1-0.5-2-1-2.8-1.7c-2.6-2-2.9-4.8-2.5-7.8c0-0.2,0.3-0.4,0.6-0.8c0.4,0.7,0.7,1.2,1,1.7c0.5,1,0.9,2,1.5,2.9
		c0.6,1.1,1.4,1.9,2.8,2.3c0.4-1.9-0.1-3.9,0.5-5.9c0.4,0.3,0.7,0.5,0.9,0.8c2.3,2.7,4.4,5.6,5.3,9.2c0.6,2.3,0.5,4.6-0.4,6.8
		C316.8,149.2,316.6,149.4,316.5,149.7z"/>
	<path class="st0" d="M239.9,265.5c-0.8,0.4-1.3,0.8-1.9,1.1c-1.1,0.5-2.2,1-3.4,1.3c-1.8,0.4-3.3-0.3-4.5-1.7
		c-0.7-0.8-0.7-1.6,0.2-2.3c0.6-0.5,1.3-0.9,2.1-1.1c3.8-1.3,7.7-1.8,11.7-1.3c2.2,0.3,3.2,2.3,1.9,4.2c-1.2,1.8-3,2.6-5.1,2.5
		c-1.3-0.1-1.4-0.3-1.2-1.6C239.7,266.2,239.8,265.9,239.9,265.5z"/>
	<path class="st0" d="M349.3,391.7c10.7,0.7,16.9,11.4,12.2,20.2c-0.4-0.8-0.7-1.5-1-2.3c-0.8-2.1-1.5-4.2-2.3-6.2
		c-0.6-1.4-1.2-2.7-2-4c-1.2-2-2.9-3.6-5.2-4.5C349.9,394.6,349.2,393.1,349.3,391.7z"/>
	<path class="st0" d="M254.1,262.6c0.7-0.6,1.3-1.2,2.1-1.6c1.5-0.9,3-0.7,4,0.8c0.5,0.7,0.9,1.6,1.1,2.4c0.4,2.2-0.9,3.7-3.2,3.6
		c-1-0.1-1.8,0.1-2.8,0.4c-2,0.6-4.1,0.8-6.2,0.2c-2.1-0.6-2.6-1.9-1.1-3.6C249.5,262.8,251.5,261.7,254.1,262.6z"/>
	<path class="st0" d="M281.7,115c1.1,0.9,1.4,2.1,1.5,3.2c0.3,2.6,0,5.1-1,7.4c-0.6,1.5-1.5,2.7-3.1,3.4c-0.4,0.2-0.7,0.7-0.9,1.2
		c-0.6,1.1-1,2.3-1.7,3.4c-1.1,1.7-2.8,2.6-5,3c0.6-1.7,1.1-3.1,1.7-4.5c1.6-4,3.6-7.9,6.8-10.9c0.4-0.3,0.6-0.9,0.7-1.4
		c0.3-1.1,0.5-2.3,0.7-3.4C281.5,116,281.6,115.5,281.7,115z"/>
	<path class="st0" d="M350.6,324.3c0.5-0.3,0.9-0.6,1.2-0.9c2.9,2.4,4.3,12.4,1.7,15.7c-0.7-0.1-0.9-0.6-1.1-1.2
		c-0.1-0.4-0.2-0.8-0.4-1.2c-0.5-0.9-1.4-0.9-2-0.1c-0.2,0.2-0.4,0.5-0.6,0.7c0,0-0.1,0-0.3,0.1c-0.1-0.2-0.2-0.4-0.3-0.6
		c-0.3-3-0.6-6-0.9-8.9c-0.1-0.9,0-1.8,0.1-2.7c0.2-1.3,0.6-1.6,1.9-1.2C350.3,324.2,350.4,324.2,350.6,324.3z"/>
	<path class="st0" d="M380.7,108.1c-2,0.7-3.8,1.3-5.9,1.9c-0.7-0.9-1.3-2-2.1-3c-0.8-1-2.1-1.2-3.3-1.3c0-0.4-0.1-0.8-0.1-1.1
		c0-1.5-0.3-1.9-1.6-2.3c-0.9-0.3-1.9-0.4-2.9-0.6c-0.3-0.1-0.6-0.1-1.1-0.2c1-1.3,2.3-1.9,3.7-2c1.2-0.1,2.5,0.1,3.7,0.5
		c3.8,1.3,6.8,3.7,9,7.1C380.4,107.3,380.5,107.6,380.7,108.1z"/>
	<path class="st0" d="M200.5,264.1c0.2,0.5,0.3,0.8,0.5,1.4c3.6-4,7.7-7.1,13.2-7.7c1,2.5,0.4,4.3-1.8,5.4
		c-3.3,1.6-6.8,2.5-10.4,3.2c-0.6,0.1-1.2,0-1.7,0c-1.4,1.5-3.1,2.3-5,2.9C194.5,267,196.8,264.7,200.5,264.1z"/>
	<path class="st0" d="M233.2,274.4c0.1,1.2-0.3,2.1-0.8,3.1c-0.9,1.8-2.2,3.2-3.9,4.3c-1.5,0.9-3,1.8-4.5,2.6
		c-2.8,1.5-5.6,2.9-8.4,4.3c0.1-0.2,0.1-0.5,0.3-0.8c1.4-2.4,3.1-4.4,5.2-6.1c3.5-3,7.4-5.2,11.6-7.1
		C232.7,274.5,232.9,274.5,233.2,274.4z"/>
	<path class="st0" d="M235.5,129.1c-2.7-1.4-5.4-2.8-7.5-5c-1.2-1.2-1.7-2.6-1.1-4.2c0.5-1.3,1-2.6,1.7-3.7c0.9-1.3,2.3-1.4,3.3-0.2
		c0.6,0.7,1.1,1.6,1.3,2.5c0.5,1.9,0.8,3.8,1.2,5.7C234.8,125.8,235.1,127.3,235.5,129.1z"/>
	<path class="st0" d="M266.7,240.6c0.3-0.5,0.5-0.8,0.6-1.1c3.8,1.4,7.1,6.1,4.6,9.5c-0.8,0-1.2-0.5-1.5-1.2
		c-0.2-0.4-0.4-0.9-0.5-1.3c-0.2-0.8-0.7-1.2-1.5-1.4c-3.2-1.1-5.7-3.1-7.5-6c-1.5-2.4-1.9-4.9-0.9-7.6c1,0.1,1.4,0.8,1.6,1.5
		c0.3,0.8,0.4,1.7,0.7,2.6c0.2,0.6,0.3,1.2,0.6,1.8c0.1,0.3,0.4,0.6,0.6,0.6c1.2,0,1.7,0.9,2.3,1.7
		C266.1,239.9,266.3,240.2,266.7,240.6z"/>
	<path class="st0" d="M360.1,164.6c-1.9,0-3.2-1.1-3.3-2.8c0-0.3,0.2-0.7,0.4-1c2.1-2.6,4.5-4.9,7.5-6.5c0.8-0.4,1.8-0.6,2.7-0.7
		c1.1-0.1,1.8,0.6,2.2,1.5c0.5,0.9,0.1,1.8-0.6,2.4c-0.7,0.7-1.6,1.3-2.4,1.8c-1.3,0.8-2.6,1.5-3.9,2.4
		C361.5,162.4,360.5,163.2,360.1,164.6z"/>
	<path class="st0" d="M242.5,227.4c-0.9-3.8-0.4-7.4,1.4-10.9c0.3,0.7,0.6,1.3,1,2.3c0.4-0.7,0.8-1.2,1.1-1.7c0.4-0.6,0.6-1.4,1-2
		c0.7-1,1-1.1,2.2-0.6c0.9-1.1,0.4-3.1,2.5-3.7c0.1,0.5,0.3,0.9,0.4,1.3c0.1,0.4,0,0.8,0.1,1.1c0.7,1.5,0.1,2.7-0.7,3.8
		c-1,1.4-2.1,2.8-3.3,4c-1.9,2-3.9,3.8-5.2,6.3C242.9,227.2,242.8,227.2,242.5,227.4z"/>
	<path class="st0" d="M221.1,277.3c-1.2,0.7-2.4,1.5-3.6,1.9c-2.7,1-5.5,1.9-8.2,2.9c-0.7,0.2-1.2-0.1-1.5-0.6
		c-0.4-0.6-0.7-1.3-1.1-2.1c2.8-2.2,5.4-4.4,8.8-5.4C218.3,273.2,220,274.2,221.1,277.3z"/>
	<path class="st0" d="M317.2,96.7c0.4,0.3,0.9,0.6,1.2,1.1c0.5,0.7,1.1,1,2,0.9c1.5-0.1,2.8,0.2,4.1,1c2.4,1.6,2.9,4.6,1.2,6.7
		c-0.4,0.5-0.8,0.7-1.4,0.6c-3.4-0.6-7.1-3.1-7.6-7.2c-0.1-0.9,0.1-1.9,0.1-2.9C316.9,96.8,317.1,96.8,317.2,96.7z"/>
	<path class="st0" d="M302.1,103.5c-0.2,0.1-0.5,0.2-0.7,0.2c-1.6,0.5-2.7-0.2-3.7-1.4c-1.1-1.4-2-2.8-2.5-4.5
		c-0.4-1.7-0.2-2.3,1.4-3c2.9-1.4,5.4-0.4,6.3,2.7c0.6,1.8,0.6,3.6-0.5,5.3C302.3,102.9,302.2,103.2,302.1,103.5z"/>
	<path class="st0" d="M300.7,24.1c1.8,3.4,4.4,2.5,7.1,1.5c-0.2,1.8-0.9,3.3-2.3,5.2c-2.4-1.9-5.4-2-8.3-2.4c-1.5-0.2-3-0.5-4.5-0.9
		c-1.2-0.4-2.2-1.2-2.9-2.4c0.8-0.9,1.8-0.9,2.8-0.8c1.3,0.2,2.5,0.4,3.7,0.7C297.9,25.4,299.3,25.2,300.7,24.1z"/>
	<path class="st0" d="M171.3,17.9c1.4,1.6,1.5,3.3,1.5,5c0,3.3-0.6,6.6-1.8,9.7c-0.1,0.2-0.2,0.3-0.4,0.6c-1.4-0.6-2.2-1.7-2.6-3.1
		C167.1,25.6,168.4,21.7,171.3,17.9z"/>
	<path class="st0" d="M392.7,116.2c-0.2-0.2-0.3-0.2-0.3-0.3c-0.5-2.5,1.6-6.7,3.9-7.8c0.7-0.3,1.4-0.4,1.8,0.3
		c0.6,0.9,1.5,0.9,2.4,1c0.7,0.1,1.5,0,2.2,0.2c1,0.2,1.2,0.6,1,1.6c-0.2,1.2-0.9,2-2.1,2.4c-1.1,0.3-2.2,0.4-3.3,0.6
		c-0.7,0.1-1.4,0.1-2,0.2C395,114.6,393.7,115,392.7,116.2z"/>
	<path class="st0" d="M373.8,198.1c-2.3,0.6-3.5,2.4-4.9,3.9c-1.1-0.2-1.7-0.9-2-1.8c-0.4-1-0.4-2.1,0.3-3c0.3-0.4,0.9-0.8,1.4-0.9
		c0.8-0.1,1.2-0.5,1.5-1.1c0.7-1.2,1.5-2.4,2.3-3.6c0.5-0.6,1-1.2,1.6-1.7c1-0.9,1.8-0.6,1.9,0.8c0.1,0.6,0,1.2-0.2,1.7
		c-0.2,0.5-0.5,1.1-0.8,1.5C374.2,195.2,373.7,196.4,373.8,198.1z"/>
	<path class="st0" d="M262.9,125.5c-0.6,0.3-1.1,0.6-1.8,0.9c-0.4-0.6-0.8-1.1-1-1.7c-1.1-2.6-1.5-5.4-0.9-8.2c0.3-1.7,1-3.2,2.8-4
		c1.1,1,1.5,2.2,1.6,3.5c0.1,1.8,0.1,3.7-0.1,5.5C263.4,122.9,263.1,124.2,262.9,125.5z"/>
	<path class="st0" d="M244.2,190.3c0,6.5-2.2,12.1-5.5,17.3c-0.1,0-0.2,0-0.4,0c-0.5-4.1-1-8.2-1.5-12.3c1.1-0.2,1.6,0.3,2,1.1
		c0.3,0.7,0.6,1.5,0.9,2.2c1.2,0,1.8-0.7,2-1.7c0.3-1.3,0.4-2.7,0.7-4C242.5,191.7,242.9,190.8,244.2,190.3z"/>
	<path class="st0" d="M196.6,75.6c-2.3-1.2-4.6-2.5-6.9-3.8c-1.1-0.7-1.6-2.2-1.1-3.4c0.1-0.3,0.5-0.5,0.8-0.7
		c0.4-0.2,0.8-0.2,1.2-0.3c0.2-1.1-0.3-2.3,0.5-3.5c0.5,0.3,1,0.6,1.3,0.9c2.2,2.7,3.7,5.8,4.6,9.1
		C197.1,74.5,197.4,75.1,196.6,75.6z"/>
	<path class="st0" d="M365.9,278.9c-1.9,3.3-8.1,4.3-10,1.1c0.2-1.3,0.9-2.2,2.4-2.2c-0.1-0.5-0.2-1-0.3-1.4
		c-0.2-1.5,0.4-2.1,1.9-1.6c0.5,0.2,1.1,0.4,1.6,0.7C363.2,276.4,364.6,277.5,365.9,278.9z"/>
	<path class="st0" d="M377.9,186.6c-1.1-0.5-2.1-1-3.1-1.6c-1-0.6-1.2-1-0.9-2.4c0.5,0.3,0.9,0.6,1.3,0.8c0.4,0.2,0.8,0.4,1.3,0.7
		c0.8-2.2-1.3-3.4-1.4-5.3c0.5-0.1,1-0.3,1.6-0.5c0.1-0.9-0.3-1.7-0.5-2.5c-0.2-0.8-0.6-1.6,0-2.4c1.3-0.3,1.6,0.9,2.1,1.7
		c0.1,0,0.2-0.1,0.3-0.1c0.1-0.5,0.1-1,0.2-1.4c0.1-0.2,0.4-0.4,0.5-0.6c0.2,0.2,0.6,0.4,0.6,0.6c0.1,1.4,0.3,2.7,0.2,4.1
		c-0.1,1.2-0.5,2.4-0.8,3.5C378.8,183,378.4,184.8,377.9,186.6z"/>
	<path class="st0" d="M204.6,253.3c-2,2.3-3.7,4.5-5.7,6.6c-1.7,1.8-3.9,2.6-6.5,2.3C192.7,258.2,200.2,252.6,204.6,253.3z"/>
	<path class="st0" d="M222.6,275.7c-0.7-2.6,0.3-4.8,2.6-6c1.9-1,5.2-0.6,6.3,1.4C229.8,274.8,225.2,277.2,222.6,275.7z"/>
	<path class="st0" d="M201.1,260.3c1.6-2.5,3.1-4.8,5.5-6.3c2.5-1.6,4.9-0.9,6.3,1.8C211,257.4,203.3,260.4,201.1,260.3z"/>
	<path class="st0" d="M186.7,277c0-0.5,0-0.8,0-1.2c-1.2-0.2-2.6,0.5-3.5-0.7c1.8-2.5,8.1-4.5,12-3.7
		C194.3,274.1,190.6,276.6,186.7,277z"/>
	<path class="st0" d="M333.2,205.5c4.8-1.8,10.6,2.3,10.2,7.1c-0.8,0.2-1.1-0.3-1.5-0.8c-1.1-1.6-1.1-1.6-3.1-0.9
		c-0.3,0.1-0.8,0.2-1,0C335.9,209.5,334.1,207.9,333.2,205.5z"/>
	<path class="st0" d="M226.5,264c-0.8-0.7-1.3-1.2-1.9-1.7c-0.3,0-0.8,0-1.2,0c-1.2,0-1.5-0.3-1.5-1.5c0-0.6,0.1-1.3,0.3-1.9
		c0.6-1.4,1.3-2.7,2-4.1c1.5,1.2,2.8,2.2,4.1,3.3c0.8,0.7,0.7,1.6,0.3,2.3C228,261.6,227.3,262.7,226.5,264z"/>
	<path class="st0" d="M334.6,274.3c-0.4,0.1-0.6,0.2-0.9,0.3c-0.4,0.2-1,0.5-1.3-0.1c-0.2-0.4-0.4-1-0.2-1.5
		c0.4-1.5,2.5-1.9,3.5-0.8c0.2,0.2,0.3,0.4,0.5,0.6c0.9,1,1.2,1,2.1,0c0.5-0.6,0.9-0.6,1.5-0.3c1.5,0.6,3.1,1.1,4.7,1.5
		c0.8,0.2,1,0.8,1.1,1.4c0.1,0.8-0.4,1-1.1,1.1c-1.8,0.4-3.5,0.3-5-0.6c-0.2-0.2-0.6-0.4-0.8-0.3C337,276.3,335.8,275.5,334.6,274.3
		z"/>
	<path class="st0" d="M190.8,183.3c-1.2-0.8-1.7-1.7-1.6-2.8c0.1-1.3,0.3-2.5,0.5-3.7c0.5-2.2,1.1-4.4,1.7-6.7
		c0.9-0.1,1.7,0.5,2.4,1.1c0.5,0.4,0.4,0.9,0.2,1.4c-0.8,2.6-1.5,5.2-2.3,7.7C191.5,181.2,191.1,182.2,190.8,183.3z"/>
	<path class="st0" d="M382.1,268c-3.1-2.8-6.5-5.3-8.8-8.7c-0.7-1-1.4-2.1-1.8-3.5c1.1-0.1,2-0.3,3-0.4c0.6,0,1.2,0.2,1,0.9
		c-0.2,0.8,0.3,1.3,0.6,1.8c1.8,2.7,3.5,5.5,5.2,8.2C381.7,266.8,381.9,267.4,382.1,268z"/>
	<path class="st0" d="M371.1,273c-3.1,0.5-5.5-0.5-7.7-2.5c-0.2-0.2-0.4-0.5-0.6-0.7c-0.7-1.1-0.5-1.8,0.8-2.2
		c0.8-0.2,1.7-0.4,2.5-0.2c1.2,0.3,2.3,0.8,3.3,1.5C370.8,269.8,371.3,271.2,371.1,273z"/>
	<path class="st0" d="M382.1,167.6c-0.5,0-0.9,0.1-1.2-0.1c-0.9-0.8-1.6-1.6-2.8-2c-0.2-0.1-0.4-0.4-0.4-0.6c-0.8-2.6-1.3-5.2-0.9-8
		c1.4-0.1,2.4,0.6,2.9,1.7c0.5,0.9,0.8,1.9,1.1,2.9C381.3,163.4,381.6,165.3,382.1,167.6z"/>
	<path class="st0" d="M202.2,280c-3.5,3.6-6.9,7.1-10.4,10.7c-2.1,2.2-4.5,4-7.2,5.3c-0.8,0.3-1.5,0.6-2.4,0.6
		c0.3-0.2,0.6-0.5,1-0.7c2.7-1.7,5-3.9,7.2-6.1c1.5-1.5,2.9-3,4.4-4.5c1.8-1.8,3.8-3.5,6.1-4.7C201.3,280.4,201.8,280.2,202.2,280z"
		/>
	<path class="st0" d="M221,176.5c-1.2,3.8-6.8,5.3-9,2.8C212.4,175.9,217.2,174.4,221,176.5z"/>
	<path class="st0" d="M212.3,152.6c0.6,1.8,2,3.2,1.9,5.3c-3.3-0.5-6.4,0.2-9.8,1C206.4,155.7,208.6,153.3,212.3,152.6z"/>
	<path class="st0" d="M261.5,274.2c-0.2,1.6-0.8,2.9-2.4,3.2c-1.8,0.4-3.4-0.3-4.8-1.5c0.5-1.5,1.6-2.2,2.8-2.8c2-1,4.2-1.4,6.4-1.8
		C264,273.1,263.2,273.8,261.5,274.2z"/>
	<path class="st0" d="M240.7,259.3c-0.7-0.2-1.6-0.4-2.3-0.8c-1.9-1-2.1-3.2-0.5-4.6c1.5-1.3,4.4-0.9,5.5,0.8
		c0.2,0.3,0.2,0.8,0.1,1.2c-0.2,1.2-1.1,2.2-1.9,3C241.5,259.1,241.1,259.1,240.7,259.3z"/>
	<path class="st0" d="M193.2,303.6c0.2-0.2,0.4-0.3,0.6-0.5c3.3-2.2,5.9-5.1,8.8-7.7c2.2-2.1,4.6-4.1,6.9-6c0.8-0.7,1.8-1.2,2.9-1.8
		c-0.1,0.3-0.1,0.4-0.1,0.5c-4,3.9-8,7.8-12.2,11.5c-1.6,1.4-3.6,2.4-5.4,3.6c-0.4,0.3-0.9,0.4-1.4,0.6
		C193.3,303.7,193.2,303.7,193.2,303.6z"/>
	<path class="st0" d="M206.9,314.4c0.2-0.7,0.4-1.5,0.6-2.2c1.2-4.1,2.4-8.2,4.5-12c0.9-1.8,2.1-3.4,3.3-5c0.5-0.7,1.2-1.2,1.9-1.7
		C213.1,300.2,211,307.8,206.9,314.4z"/>
	<path class="st0" d="M218.2,163.3c-1.9,3.1-5.9,3.5-9.1,0.9c0.4-1.3,1.8-0.7,2.7-1.4c0-0.3,0.1-0.6,0.1-1c0.2-1.4,0.7-1.7,2-1.1
		c0.7,0.3,1.3,0.7,1.9,1.1C216.6,162.3,217.4,162.8,218.2,163.3z"/>
	<path class="st0" d="M367.3,315.4c-3.2-7.1-6.2-14.3-10.3-20.9c0.1-0.1,0.2-0.2,0.3-0.2c0.4,0.4,0.9,0.8,1.2,1.2
		c3.3,3.7,5.5,8,7.1,12.6C366.5,310.4,367.1,312.8,367.3,315.4z"/>
	<path class="st0" d="M249.6,281.6c-0.8-0.1-1.8,0-2.1-0.9c-0.2-0.6,0.1-1.5,0.5-2c1-1.5,2.5-2.2,4.3-2.3c1.1-0.1,1.8,0.4,2.2,1.2
		c0.3,0.9,0.1,1.7-0.7,2.4C252.5,281,251.1,281.5,249.6,281.6z"/>
	<path class="st0" d="M212.5,292.6c-1.6,2.3-2.7,4.8-3.8,7.3c-0.8,1.8-1.6,3.6-2.5,5.3c-0.9,1.7-2.1,3.2-4.1,4.3
		c0.3-0.6,0.5-0.8,0.6-1.1c1-1.9,2-3.8,2.9-5.8c1-2.1,1.9-4.2,3-6.2C209.5,294.8,210.7,293.4,212.5,292.6z"/>
	<path class="st0" d="M215.7,171.5c-1.1-2.4,0.7-5.2,3.1-5.7c0.3-0.1,0.6-0.1,0.9-0.1c1,0.1,2.2,0.9,2.3,1.6
		c0.2,0.8-0.3,1.7-1.4,2.2C219.1,170.4,217.4,170.9,215.7,171.5z"/>
	<path class="st0" d="M251.7,253.7c-0.6,1.3-1.2,2.7-1.9,3.9c-0.6,1-1.4,1.3-2.2,1.1c-0.9-0.2-1.5-1.1-1.4-2.2c0-0.7,0.2-1.4,0.4-2
		C247.4,252.3,249.9,251.6,251.7,253.7z"/>
	<path class="st0" d="M390.9,276.8c-4.6-1.6-9.5-1.5-14.2-2.5c-1.1-0.2-2.2-0.6-3.2-1C378.1,272.4,389.4,273.8,390.9,276.8z"/>
	<path class="st0" d="M311.8,328.7c-1.8-3.5-4.4-6.2-3.7-10.3c1-0.2,1.8,0.4,2.3,1.1c0.6,0.8,1.1,1.8,1.4,2.8
		C312.3,324.3,312.3,326.9,311.8,328.7z"/>
	<path class="st0" d="M423.5,127.1c5.5,3.7,10.9,7.3,16.5,11.1c-0.5,0.1-0.6,0.1-0.6,0.1c-5.7-2.4-10.9-5.5-15.3-9.8
		C423.6,128.1,423,127.8,423.5,127.1z"/>
	<path class="st0" d="M253,240.4c-2.7-2.8-3.8-7.6-2.4-10C253.2,231.7,254.4,236.6,253,240.4z"/>
	<path class="st0" d="M355.1,262.6c-1.3-0.1-2.8-0.1-4.1-0.3c-0.3,0-0.6-0.4-0.9-0.7c-0.1-0.1-0.1-0.2-0.1-0.3c-0.3-1-0.7-2.1,0.2-3
		c1-0.9,2.1-0.5,3.1,0C355.1,259.2,355.8,260.7,355.1,262.6z"/>
	<path class="st0" d="M263.8,256.6c-0.5,0-0.6,0-0.8,0c-0.8-0.1-1.5-0.2-1.8-1c-0.3-0.8,0.2-1.3,0.7-1.8c0.9-1,2.1-1.6,3.4-1.8
		c1.2-0.2,1.9,0.2,2.2,1.2c0.3,0.9,0.1,1.6-0.8,2.3C265.7,256.2,264.6,256.5,263.8,256.6z"/>
	<path class="st0" d="M280.7,332.5c-0.1-0.6-0.3-1.2-0.3-1.8c-0.1-2.2,0.4-4.2,1.5-6c0.3-0.6,0.7-1.3,1.5-1.2
		c0.8,0.1,0.9,0.9,1.2,1.5c0.4,1,0.3,1.7-0.5,2.6c-0.8,0.9-1.2,2.1-1.8,3.1c-0.4,0.7-0.8,1.3-1.1,2
		C281,332.5,280.8,332.5,280.7,332.5z"/>
	<path class="st0" d="M221.1,278.9c-0.2,3.2-3.9,6.2-7.5,6.4c-0.1-1.3,0.4-2.3,1.3-3.1c0.8-0.7,1.8-1.4,2.7-1.9
		C218.6,279.8,219.8,279.4,221.1,278.9z"/>
	<path class="st0" d="M360.9,273.4c1.2-1.4,2-1.6,3.3-1c2.5,1.2,3.7,3.3,4.6,6.2C365.4,277.6,363.3,275.4,360.9,273.4z"/>
	<path class="st0" d="M437.8,245c1.1-0.2,2.1,0.1,3,0.6c1.2,0.8,2.4,1.7,3.5,2.7c2.1,2.2,4.1,4.5,6.2,6.7c0.1-0.1,0.2-0.1,0.3-0.2
		c-0.3-0.1-0.6-0.1-0.9-0.2c-1.3-0.7-2.6-1.4-3.7-2.3c-1.1-0.9-2-2-3.1-2.9C441.4,248,439.6,246.6,437.8,245z"/>
	<path class="st0" d="M301.3,333.2c0-2.1,1.3-6.1,2.7-8.7c1.3,0.7,1.6,1.8,1.4,3c-0.3,1.6-0.7,3.3-1,4.9
		C303.3,332.7,302.3,332.9,301.3,333.2z"/>
	<path class="st0" d="M243.5,281.7c0.1,3.3-2.6,7.1-5.4,7.7C238.3,285.4,240.5,282.2,243.5,281.7z"/>
	<path class="st0" d="M344.3,146.6c0.3,0.4,0.6,0.7,0.8,1.1c0.4,0.8,0.2,1.5-0.8,1.7c-0.8,0.1-1.7,0.1-2.5,0c-0.3,0-0.7-0.4-0.9-0.8
		c-0.7-1.4-0.2-3.5,1.1-4.4c0.4-0.2,0.9-0.4,1.3-0.4c1.5-0.1,2,0.8,1.3,2.1c-0.1,0.1-0.2,0.3-0.3,0.4
		C344.3,146.3,344.3,146.4,344.3,146.6z"/>
	<path class="st0" d="M146.6,271.5c5.7,2.2,11.5,2.4,17.4,3.1C159.4,276.5,147.7,274.5,146.6,271.5z"/>
	<path class="st0" d="M214.3,219.1c-0.3-0.6-0.7-1-0.8-1.5c-0.6-2.1,0-3.9,1.4-5.5c0.5-0.6,1.3-1,2.1-0.7c0.5,0.2,0.8,1.4,0.6,2.3
		c-0.1,0.3-0.1,0.5-0.3,0.7c-0.5,0.8-1.1,1.5-1.6,2.3C215.2,217.4,214.9,218.1,214.3,219.1z"/>
	<path class="st0" d="M422.7,104.2c-0.4-0.1-0.9-0.2-1.3-0.3c-4.8-2.1-9.6-4.2-14.5-6.3C409.5,96.6,417.1,100.2,422.7,104.2z"/>
	<path class="st0" d="M371.2,304.6c-3.5-5.5-7.5-10.3-11.8-14.7C363.9,291.7,370.4,299.8,371.2,304.6z"/>
	<path class="st0" d="M202.6,249.2c0.6,0.2,1.2,0.6,0.7,1.4c-3.7,1.3-4.2,1.4-5.8,1c0.8-1.3,1.5-2.7,2.3-3.9c0.6-1,1.5-1.6,3-1.1
		C202.7,247.4,202.6,248.2,202.6,249.2z"/>
	<path class="st0" d="M357.5,286.3c-1.3,0-2.6-0.3-3.7-0.9c0,0-0.1-0.1-0.1-0.1c-1.1-0.7-1.7-2.2-1.2-2.9c0.6-0.8,2.2-1.1,3.3-0.6
		C357.3,282.7,358,284.3,357.5,286.3z"/>
	<path class="st0" d="M227.5,304.4c-1.3,4-5.7,12.3-7.4,13.7C221.3,312.9,225,305.7,227.5,304.4z"/>
	<path class="st0" d="M206.8,284.2c-5,2.9-9,7.4-14.3,9.9c0.2-0.2,0.4-0.4,0.6-0.6c1.7-1.5,3.3-3.1,5-4.6c2.3-2,4.8-3.8,7.9-4.5
		C206.3,284.3,206.5,284.2,206.8,284.2z"/>
	<path class="st0" d="M366.3,266.9c-0.7-0.3-1.7-0.5-2.5-1c-0.8-0.4-0.8-1-0.4-1.7c0.6-1.1,1.7-1.4,2.8-1.2c1.2,0.1,2.3,0.6,2.7,1.8
		c0.3,0.7-0.1,1.5-0.9,1.8C367.7,266.7,367.1,266.7,366.3,266.9z"/>
	<path class="st0" d="M345.6,259.6c2.1,0,2.7,1,1.8,2.4c-0.5,0.7-1.2,1.4-1.9,1.8c-1.1,0.7-2,0.4-2.5-0.7c-0.7-1.2-0.5-2.4,0.5-2.9
		C344.3,259.9,345.2,259.7,345.6,259.6z"/>
	<path class="st0" d="M361.8,254.5c0.1,0.8,0.4,1.5,0.4,2.2c0,1.1-0.6,1.8-1.8,1.7c-1.2,0-2.4-0.5-3.2-1.4c-0.7-0.8-0.6-1.5,0.4-2
		C358.5,254.4,359.9,254.2,361.8,254.5z"/>
	<path class="st0" d="M220.2,246.3c-2.8,1.8-9.2,3.9-12.1,4C209.4,248.1,216.4,245.8,220.2,246.3z"/>
	<path class="st0" d="M412.2,105.1c1.5-0.7,3.1-0.6,4.6-0.2c3.9,0.9,7,3.1,9.8,5.9c-2.3-1.2-4.6-2.4-7-3.5
		C417.2,106.1,414.7,105.5,412.2,105.1z"/>
	<path class="st0" d="M267.9,262c0,1.8-1.3,3.2-2.7,3.2c-0.9,0-1.6-0.9-1.6-2c0-1.4,1.3-2.7,2.6-2.7
		C267.3,260.5,267.9,261.1,267.9,262z"/>
	<path class="st0" d="M445,176c0.4,0,0.5,0,0.6,0c2.3,1.7,5,2.2,7.6,2.9c1.2,0.3,2.3,0.6,3.5,1c0.5,0.2,1,0.4,1.6,0.7
		c-0.2,0.2-0.3,0.3-0.3,0.3c-3.3-0.2-6.6-0.8-9.6-2.1c-1-0.5-2-1.2-2.9-1.8C445.2,176.8,445.2,176.4,445,176z"/>
	<path class="st0" d="M432.5,137.3c5.3,3.1,10.9,4.8,15.5,8.6c-1.5-0.3-2.7-1.1-4.1-1.7c-1.3-0.6-2.6-1.3-4-2
		c-1.4-0.7-2.7-1.4-4.1-2.1C432.8,138.4,432.8,138.4,432.5,137.3z"/>
	<path class="st0" d="M254.1,257c0.7-0.9,1.2-1.8,1.9-2.5c0.7-0.7,1.5-0.7,2.2-0.2c0.8,0.5,1.2,1.8,0.9,2.7
		c-0.2,0.8-0.9,1.2-1.8,1.2C256.2,258.1,255.2,257.8,254.1,257z"/>
	<path class="st0" d="M308.5,378.6c0.9,5.2,0,10.2-1.9,15C306.6,388.5,308.3,383.7,308.5,378.6z"/>
	<path class="st0" d="M329.9,345.9c1.7,2.4,1.9,10.4,0.4,14.2c0,0-0.1,0-0.1,0c0,0-0.1-0.1-0.1-0.1c-0.1-1.2-0.2-2.3-0.2-3.5
		C329.9,353,329.9,349.5,329.9,345.9z"/>
	<path class="st0" d="M273.8,262c-0.2,1.6-1.1,2.5-2.4,2.9c-1.1,0.4-2.2,0-2.6-0.8c-0.3-0.8,0.3-1.9,1.3-2.4
		C271.4,261.1,272.6,261.2,273.8,262z"/>
	<path class="st0" d="M358.9,232.1c-2.2,0-3.2-0.8-3.8-2.6c-0.2-0.5-0.5-1.1,0.1-1.6c0.6-0.5,1.4-0.7,2.1-0.2
		c0.4,0.3,0.8,0.7,1.1,1.1C359,229.8,359.1,230.9,358.9,232.1z"/>
	<path class="st0" d="M439.6,222.3c3.9,1.6,7.3,4.3,11.9,3.8C449.2,228.2,441.5,225.8,439.6,222.3z"/>
	<path class="st0" d="M215.9,189.9c1-0.2,2-0.9,2.9,0c-0.4,2-1.8,2.8-4.3,2.5c-0.5-0.7-0.8-1.6-0.7-2.5c0.1-0.4,0.4-0.9,0.7-1.1
		c0.5-0.3,0.8,0.2,1,0.6C215.7,189.7,215.8,189.8,215.9,189.9z"/>
	<path class="st0" d="M300,359c1.7,3.9,2.6,8.1,3.6,12.2C301.3,367.5,299.8,363.5,300,359z"/>
	<path class="st0" d="M312.4,365.1c1.9-4.5,2.4-9.1,4.2-13.5C317.2,355.1,314.9,362.6,312.4,365.1z"/>
	<path class="st0" d="M369.4,150c0.4,0.1,0.6,0.2,0.8,0.3c1.4,0.8,2.2,1.9,2.6,3.4c0.2,0.6-0.2,1-0.8,0.7c-1.2-0.6-2.3-1.2-3.4-1.9
		c-0.6-0.4-0.6-1-0.2-1.5C368.7,150.6,369.1,150.3,369.4,150z"/>
	<path class="st0" d="M332.9,247.3c-1.5-0.3-2.5-1.3-3-2.3c-0.4-0.8-0.1-1.9,0-2.9c0-0.3,0.5-0.6,0.9-1.1c0.8,1.8,1.5,3.4,2.1,5
		C333,246.4,332.9,246.8,332.9,247.3z"/>
	<path class="st0" d="M369.3,280.6c2.9,0,6.8,2.5,8.3,5.4C374.6,284.3,371.8,283,369.3,280.6z"/>
	<path class="st0" d="M264.6,276.5c-0.2-0.1-0.9-0.4-1.1-0.8c-0.2-0.3,0.1-1,0.3-1.4c0.6-1,2-1.5,3-1.2c0.5,0.1,0.8,0.4,0.8,1
		C267.5,275.3,266.2,276.5,264.6,276.5z"/>
	<path class="st0" d="M291.7,322.8c-0.7,1.9-0.9,3.9-2.7,5.1c-1.2-1-1.2-1.9-0.4-3.5C289.5,322.9,290.3,322.5,291.7,322.8z"/>
	<path class="st0" d="M444.7,191.6c3.3,1.9,4.3,5.3,5.7,8.7C449,199.3,445.4,193.9,444.7,191.6z"/>
	<path class="st0" d="M226.4,314.1c1.1-2.7,1.1-5.9,3.6-7.9C229.5,309.2,229,312.1,226.4,314.1z"/>
	<path class="st0" d="M355.1,275.5c-0.9,0.1-1.3-0.4-1.7-0.9c-0.4-0.4-0.7-1-1.2-1.2c-0.6-0.3-0.8-0.8-0.6-1.3
		c0.2-0.4,0.5-0.8,0.9-0.9c0.5-0.2,1.2-0.3,1.6,0.3C355,272.7,355.6,274,355.1,275.5z"/>
	<path class="st0" d="M350.6,169.8c0.9-2.2,2.6-2.5,4.3-3c0.7,1,0.8,2,0.4,3C353.8,169.8,352.3,169.8,350.6,169.8z"/>
	<path class="st0" d="M369.8,164.2c-0.9,0.8-1.4,1.4-2,1.8c-0.8,0.5-1.7,0.3-2.2-0.5c-0.4-0.6-0.7-1.2-0.3-1.9
		c0.4-0.6,1.1-0.7,1.7-0.5C367.7,163.4,368.5,163.8,369.8,164.2z"/>
	<path class="st0" d="M249.2,276.1c-1.4,1.6-2.6,3.1-3.8,4.5c-0.7-0.4-0.9-0.8-0.6-1.3c0.5-1,1-2,1.6-2.8
		C247,275.5,247.7,275.5,249.2,276.1z"/>
	<path class="st0" d="M338.3,261.9c-0.7,0.9-1.1,1.7-1.7,2.2c-0.6,0.6-1.4,0.5-1.8-0.3c-0.3-0.4-0.4-1-0.4-1.5
		c0-0.9,0.6-1.5,1.5-1.3C336.6,261.1,337.3,261.5,338.3,261.9z"/>
	<path class="st0" d="M330.5,255.9c0.4-2,2.2-2.9,3.6-2c0.6,0.4,0.7,0.8,0.4,1.4c-0.6,0.9-1.3,1.3-2.3,1.1
		C331.6,256.4,331.1,256.1,330.5,255.9z"/>
	<path class="st0" d="M276.7,262.8c-0.3-2,0.4-3.2,2-3.5c1.2-0.2,1.7,0.4,1.3,1.6C279.7,262.2,278.5,262.9,276.7,262.8z"/>
	<path class="st0" d="M329.1,264.4c-1.2,0-2-0.6-2.1-1.5c0-0.8,0.9-1.6,1.8-1.6c1,0,1.8,0.8,1.8,1.8
		C330.7,264,330.3,264.4,329.1,264.4z"/>
	<path class="st0" d="M449.5,170.5c3,0.9,5.8,1.7,8.7,2.6C455.6,174.1,451.2,172.8,449.5,170.5z"/>
	<path class="st0" d="M351.7,276.1c-1.6,0.3-3.2-0.6-3.5-2c-0.1-0.4,0.1-1,0.3-1.2c0.4-0.2,1-0.3,1.4-0.1
		C350.9,273.3,351.6,274.8,351.7,276.1z"/>
	<path class="st0" d="M417.3,114.7c2.8-0.2,5.2,0.8,7.7,2C422.1,117.4,419.8,115.6,417.3,114.7z"/>
	<path class="st0" d="M271.1,275c-0.2-0.1-0.7-0.3-0.9-0.6c-0.1-0.4,0.1-0.9,0.2-1.3c0,0,0.1-0.1,0.1-0.1c0.6-0.7,2-1,2.7-0.6
		c0.4,0.2,0.6,0.6,0.4,1C273.4,274.4,272.4,275.1,271.1,275z"/>
	<path class="st0" d="M371.4,232.9c-1.7,1-3.2,0.6-4.6-1.1c0.5-1.2,0.9-1.4,1.9-0.8C369.6,231.5,370.4,232.2,371.4,232.9z"/>
	<path class="st0" d="M367.8,169.9c-0.6,0.7-1.5,1.2-2.3,0.8c-1-0.4-1-1.6-1.2-2.5C366.1,167.7,367.1,168.3,367.8,169.9z"/>
	<path class="st0" d="M351.5,244.6c-0.7-0.2-1.2-0.3-1.7-0.4c-0.5-0.1-0.9-0.4-0.9-1c0.1-0.6,0.4-1.1,1-1.2c0.7-0.2,1.8,0.3,2.2,1
		c0.2,0.3,0.2,0.8,0.1,1.1C352.1,244.4,351.7,244.5,351.5,244.6z"/>
	<path class="st0" d="M414.2,35.3c-0.4,1.2-0.7,2.3-1.1,3.4c-0.4,1.1-0.5,1.3-1.7,1.7c0-1.5,0.4-2.9,1.1-4.2
		C412.9,35.6,413.4,35.1,414.2,35.3z"/>
	<path class="st0" d="M366.1,238.7c2.5-0.3,3.1,0,3.4,2.1C367.4,241.4,366.1,240.6,366.1,238.7z"/>
	<path class="st0" d="M276.9,271.6c-0.1-1.1,0.3-1.5,0.9-1.8c0.7-0.3,1.3-0.2,1.9,0.2c0.1,0.1,0.3,0.3,0.2,0.4
		c-0.3,0.5-0.4,1.2-0.9,1.6c-0.4,0.3-1.2,0.4-1.7,0.4C277.1,272.3,276.9,271.7,276.9,271.6z"/>
	<path class="st0" d="M417.2,52.8c-1.3,1.6-2.4,2.9-3.5,4.2C412.6,55.3,414.3,53.1,417.2,52.8z"/>
	<path class="st0" d="M320.8,269.9c1-0.3,1.8,0.1,2.4,1c0.3,0.4,0.5,0.8,0.1,1.3c-0.4,0.4-0.9,0.6-1.4,0.4
		C320.8,272.2,320.5,271.3,320.8,269.9z"/>
	<path class="st0" d="M370.3,237.3c-1.2,0-2.1-0.4-3-1.4c0.5-0.5,0.9-1,1.4-1.5C370.3,235.3,370.5,235.7,370.3,237.3z"/>
	<path class="st0" d="M274.5,277.4c0.7,1.9-0.1,3.2-2,3.4C272.3,279,272.8,278.1,274.5,277.4z"/>
	<path class="st0" d="M416.1,38.6c-0.8,1.6-1.5,3.1-2.3,4.7C412.7,41.3,413.8,38.9,416.1,38.6z"/>
	<path class="st0" d="M204.1,40.1c1.4,1.6,1.4,2.9,0.3,3.8C203.3,42.6,203.2,41.5,204.1,40.1z"/>
	<path class="st0" d="M267.9,283.6c-0.5-0.3-0.9-0.5-0.7-1.3c0.4-1.1,0.9-1.5,2.2-1.5C269.8,282.1,269.7,282.4,267.9,283.6z"/>
	<path class="st0" d="M414.8,49.6c-1.2-1.7-0.3-3.3,2.2-3.9C417,47.3,415.3,48,414.8,49.6z"/>
	<path class="st0" d="M369.6,207.6c-0.9,0.3-1.6,0.2-2.3-0.2c-0.4-0.2-0.8-0.7-0.4-1.1c0.2-0.3,0.8-0.5,1.2-0.5
		C368.9,206,369.3,206.7,369.6,207.6z"/>
	<path class="st0" d="M239,267.3c-0.9,1.6-2,2.6-3.6,3.2C235.7,268.9,237,267.7,239,267.3z"/>
	<path class="st0" d="M317,268.1c-0.2,0.8-0.4,1.5-0.7,2.6c-0.8-0.8-1.3-1.4-1.8-1.9C315.3,267.7,315.3,267.6,317,268.1z"/>
	<path class="st0" d="M279.6,276.3c-0.1,1.9-0.4,2.3-1.9,2.4C277.4,277.1,278,276.3,279.6,276.3z"/>
	<path class="st0" d="M321.8,263.4c-0.9,0.3-1.6,0.3-2.3-0.4c-0.4-0.5-0.3-1,0.3-1.2C321,261.4,321.8,261.9,321.8,263.4z"/>
	<path class="st0" d="M211.3,40.1c0.6,1.5,0.2,2.8-1.1,3.7C210,42.2,210.4,40.9,211.3,40.1z"/>
	<path class="st0" d="M207.8,41.1c0.6,1,0.6,2,0.3,3.1c-1-0.4-1.4-0.9-1.3-1.8C206.8,41.8,206.9,41.1,207.8,41.1z"/>
	<path class="st0" d="M237.4,152.2c-1.7-0.3-1.3-1.9-2.3-2.7c-0.3,0.5-0.6,1-1.1,1.7c-0.4-0.6-0.8-1.1-1-1.7
		c-0.6-1.5,0.1-2.7,1.7-2.9c1.2-0.2,2.3-0.1,3.2,0.9c0.9,1,0.7,2.2,0.2,3.3C237.9,151.3,237.6,151.7,237.4,152.2z"/>
</g>
</svg>
